<svg width="25" height="25" viewBox="0 0 25 25" fill="none" xmlns="http://www.w3.org/2000/svg">
<path d="M11.9751 19.6115C13.0106 19.6115 13.8501 18.772 13.8501 17.7365C13.8501 16.701 13.0106 15.8615 11.9751 15.8615C10.9396 15.8615 10.1001 16.701 10.1001 17.7365C10.1001 18.772 10.9396 19.6115 11.9751 19.6115Z" stroke="#6D635B" stroke-width="1.5" stroke-linecap="round" stroke-linejoin="round"/>
<path d="M11.9751 15.8615V11.3615" stroke="#6D635B" stroke-width="1.5" stroke-linecap="round" stroke-linejoin="round"/>
<path d="M20.6001 4.61151V7.61151" stroke="#6D635B" stroke-width="1.5" stroke-linecap="round" stroke-linejoin="round"/>
<path d="M17.75 6.68341L20.6 7.61154" stroke="#6D635B" stroke-width="1.5" stroke-linecap="round" stroke-linejoin="round"/>
<path d="M18.8374 10.0396L20.5999 7.61151" stroke="#6D635B" stroke-width="1.5" stroke-linecap="round" stroke-linejoin="round"/>
<path d="M22.3626 10.0396L20.6001 7.61151" stroke="#6D635B" stroke-width="1.5" stroke-linecap="round" stroke-linejoin="round"/>
<path d="M23.4501 6.68341L20.6001 7.61154" stroke="#6D635B" stroke-width="1.5" stroke-linecap="round" stroke-linejoin="round"/>
<path d="M8.9751 13.8928V4.61151C8.9751 3.81586 9.29117 3.0528 9.85378 2.49019C10.4164 1.92758 11.1794 1.61151 11.9751 1.61151C12.7707 1.61151 13.5338 1.92758 14.0964 2.49019C14.659 3.0528 14.9751 3.81586 14.9751 4.61151V13.8928C15.7752 14.5174 16.3604 15.3763 16.649 16.3496C16.9375 17.3228 16.9151 18.3618 16.5848 19.3217C16.2545 20.2816 15.6327 21.1144 14.8064 21.7039C13.98 22.2935 12.9902 22.6104 11.9751 22.6104C10.96 22.6104 9.97019 22.2935 9.14382 21.7039C8.31745 21.1144 7.69574 20.2816 7.36542 19.3217C7.0351 18.3618 7.01265 17.3228 7.30122 16.3496C7.58978 15.3763 8.17496 14.5174 8.9751 13.8928V13.8928Z" stroke="#6D635B" stroke-width="1.5" stroke-linecap="round" stroke-linejoin="round"/>
</svg>
