<svg width="25" height="25" viewBox="0 0 25 25" fill="none" xmlns="http://www.w3.org/2000/svg">
<path d="M12.7251 6.57855V18.5786" stroke="#6D635B" stroke-width="1.5" stroke-linecap="round" stroke-linejoin="round"/>
<path d="M10.4751 4.32855L12.7251 6.57855L14.9751 4.32855" fill="#6D635B"/>
<path d="M10.4751 4.32855L12.7251 6.57855L14.9751 4.32855" stroke="#6D635B" stroke-width="1.5" stroke-linecap="round" stroke-linejoin="round"/>
<path d="M10.4751 20.8286L12.7251 18.5786L14.9751 20.8286" fill="#6D635B"/>
<path d="M10.4751 20.8286L12.7251 18.5786L14.9751 20.8286" stroke="#6D635B" stroke-width="1.5" stroke-linecap="round" stroke-linejoin="round"/>
<path d="M7.53125 9.57855L17.9187 15.5786" stroke="#6D635B" stroke-width="1.5" stroke-linecap="round" stroke-linejoin="round"/>
<path d="M4.45654 10.4035L7.53154 9.57854L6.70654 6.50354" fill="#6D635B"/>
<path d="M4.45654 10.4035L7.53154 9.57854L6.70654 6.50354" stroke="#6D635B" stroke-width="1.5" stroke-linecap="round" stroke-linejoin="round"/>
<path d="M18.7439 18.6535L17.9189 15.5785L20.9939 14.7535" fill="#6D635B"/>
<path d="M18.7439 18.6535L17.9189 15.5785L20.9939 14.7535" stroke="#6D635B" stroke-width="1.5" stroke-linecap="round" stroke-linejoin="round"/>
<path d="M7.53125 15.5786L17.9187 9.57855" stroke="#6D635B" stroke-width="1.5" stroke-linecap="round" stroke-linejoin="round"/>
<path d="M6.70654 18.6535L7.53154 15.5785L4.45654 14.7535" stroke="#6D635B" stroke-width="1.5" stroke-linecap="round" stroke-linejoin="round"/>
<path d="M20.9939 10.4035L17.9189 9.57854L18.7439 6.50354" stroke="#6D635B" stroke-width="1.5" stroke-linecap="round" stroke-linejoin="round"/>
</svg>
