<svg width="25" height="25" viewBox="0 0 25 25" fill="none" xmlns="http://www.w3.org/2000/svg">
<path d="M12.7046 6.57855V18.5786" stroke="black" stroke-width="1.5" stroke-linecap="round" stroke-linejoin="round"/>
<path d="M10.4546 4.32855L12.7046 6.57855L14.9546 4.32855" fill="black"/>
<path d="M10.4546 4.32855L12.7046 6.57855L14.9546 4.32855" stroke="black" stroke-width="1.5" stroke-linecap="round" stroke-linejoin="round"/>
<path d="M10.4546 20.8286L12.7046 18.5786L14.9546 20.8286" fill="black"/>
<path d="M10.4546 20.8286L12.7046 18.5786L14.9546 20.8286" stroke="black" stroke-width="1.5" stroke-linecap="round" stroke-linejoin="round"/>
<path d="M7.51074 9.57855L17.8982 15.5786" stroke="black" stroke-width="1.5" stroke-linecap="round" stroke-linejoin="round"/>
<path d="M4.43604 10.4035L7.51104 9.57854L6.68604 6.50354" fill="black"/>
<path d="M4.43604 10.4035L7.51104 9.57854L6.68604 6.50354" stroke="black" stroke-width="1.5" stroke-linecap="round" stroke-linejoin="round"/>
<path d="M18.7234 18.6535L17.8984 15.5785L20.9734 14.7535" fill="black"/>
<path d="M18.7234 18.6535L17.8984 15.5785L20.9734 14.7535" stroke="black" stroke-width="1.5" stroke-linecap="round" stroke-linejoin="round"/>
<path d="M7.51074 15.5786L17.8982 9.57855" stroke="black" stroke-width="1.5" stroke-linecap="round" stroke-linejoin="round"/>
<path d="M6.68604 18.6535L7.51104 15.5785L4.43604 14.7535" stroke="black" stroke-width="1.5" stroke-linecap="round" stroke-linejoin="round"/>
<path d="M20.9734 10.4035L17.8984 9.57854L18.7234 6.50354" stroke="black" stroke-width="1.5" stroke-linecap="round" stroke-linejoin="round"/>
</svg>
