<svg width="25" height="25" viewBox="0 0 25 25" fill="none" xmlns="http://www.w3.org/2000/svg">
<path d="M8.95459 14.2645C8.95459 13.0037 9.32848 11.7711 10.029 10.7228C10.7295 9.67441 11.7251 8.85731 12.89 8.3748C14.0549 7.89229 15.3367 7.76604 16.5733 8.01202C17.8099 8.258 18.9458 8.86516 19.8374 9.75672C20.729 10.6483 21.3361 11.7842 21.5821 13.0208C21.8281 14.2575 21.7018 15.5393 21.2193 16.7041C20.7368 17.869 19.9197 18.8647 18.8714 19.5651C17.823 20.2656 16.5904 20.6395 15.3296 20.6395H7.82959C6.73557 20.6395 5.68636 20.2049 4.91277 19.4313C4.13919 18.6578 3.70459 17.6085 3.70459 16.5145C3.70459 15.4205 4.13919 14.3713 4.91277 13.5977C5.68636 12.8241 6.73557 12.3895 7.82959 12.3895C8.28605 12.3872 8.73953 12.4633 9.17022 12.6145" stroke="black" stroke-width="1.5" stroke-linecap="round" stroke-linejoin="round"/>
<path d="M8.17646 5.70518L7.78271 3.49268" stroke="black" stroke-width="1.5" stroke-linecap="round" stroke-linejoin="round"/>
<path d="M5.27022 7.56139L3.42334 6.26764" stroke="black" stroke-width="1.5" stroke-linecap="round" stroke-linejoin="round"/>
<path d="M4.52012 10.9177L2.30762 11.3114" stroke="black" stroke-width="1.5" stroke-linecap="round" stroke-linejoin="round"/>
<path d="M11.5327 6.45515L12.8265 4.60828" stroke="black" stroke-width="1.5" stroke-linecap="round" stroke-linejoin="round"/>
<path d="M5.54225 13.0833C5.01654 12.4642 4.66398 11.717 4.52038 10.9177C4.32992 9.83632 4.54138 8.72266 5.11494 7.7864C5.68849 6.85014 6.58457 6.15587 7.63442 5.83435C8.68426 5.51283 9.81544 5.58623 10.8149 6.04074C11.8144 6.49525 12.6133 7.29949 13.061 8.30203" stroke="black" stroke-width="1.5" stroke-linecap="round" stroke-linejoin="round"/>
</svg>
