<svg width="25" height="25" viewBox="0 0 25 25" fill="none" xmlns="http://www.w3.org/2000/svg">
<path d="M9.39522 20.9585H5.20459C5.00568 20.9585 4.81492 20.8795 4.67426 20.7389C4.53361 20.5982 4.45459 20.4074 4.45459 20.2085V16.0179C4.45425 15.9205 4.47312 15.824 4.51012 15.7339C4.54712 15.6438 4.60153 15.5619 4.67022 15.4929L15.9202 4.24291C15.99 4.17205 16.0732 4.11577 16.1649 4.07736C16.2567 4.03895 16.3551 4.01917 16.4546 4.01917C16.5541 4.01917 16.6525 4.03895 16.7443 4.07736C16.836 4.11577 16.9192 4.17205 16.989 4.24291L21.1702 8.42416C21.2411 8.49395 21.2974 8.57713 21.3358 8.66887C21.3742 8.76061 21.394 8.85908 21.394 8.95854C21.394 9.05799 21.3742 9.15646 21.3358 9.2482C21.2974 9.33994 21.2411 9.42312 21.1702 9.49291L9.92022 20.7429C9.85119 20.8116 9.76928 20.866 9.67919 20.903C9.58911 20.94 9.49261 20.9589 9.39522 20.9585V20.9585Z" stroke="#83913A" stroke-width="1.5" stroke-linecap="round" stroke-linejoin="round"/>
<path d="M13.4546 6.70856L18.7046 11.9586" stroke="#83913A" stroke-width="1.5" stroke-linecap="round" stroke-linejoin="round"/>
<path d="M16.0796 9.33356L7.07959 18.3336" stroke="#83913A" stroke-width="1.5" stroke-linecap="round" stroke-linejoin="round"/>
<path d="M9.65771 20.9117L4.50146 15.7554" stroke="#83913A" stroke-width="1.5" stroke-linecap="round" stroke-linejoin="round"/>
</svg>
