<svg width="25" height="25" viewBox="0 0 25 25" fill="none" xmlns="http://www.w3.org/2000/svg">
<path d="M8.9751 14.2645C8.9751 13.0037 9.34899 11.7711 10.0495 10.7228C10.75 9.67441 11.7456 8.85731 12.9105 8.3748C14.0754 7.89229 15.3572 7.76604 16.5938 8.01202C17.8304 8.258 18.9663 8.86516 19.8579 9.75672C20.7495 10.6483 21.3566 11.7842 21.6026 13.0208C21.8486 14.2575 21.7223 15.5393 21.2398 16.7041C20.7573 17.869 19.9402 18.8647 18.8919 19.5651C17.8435 20.2656 16.611 20.6395 15.3501 20.6395H7.8501C6.75608 20.6395 5.70687 20.2049 4.93328 19.4313C4.15969 18.6578 3.7251 17.6085 3.7251 16.5145C3.7251 15.4205 4.15969 14.3713 4.93328 13.5977C5.70687 12.8241 6.75608 12.3895 7.8501 12.3895C8.30656 12.3872 8.76004 12.4633 9.19072 12.6145" stroke="#6D635B" stroke-width="1.5" stroke-linecap="round" stroke-linejoin="round"/>
<path d="M8.19697 5.70518L7.80322 3.49268" stroke="#6D635B" stroke-width="1.5" stroke-linecap="round" stroke-linejoin="round"/>
<path d="M5.29072 7.56139L3.44385 6.26764" stroke="#6D635B" stroke-width="1.5" stroke-linecap="round" stroke-linejoin="round"/>
<path d="M4.54063 10.9177L2.32812 11.3114" stroke="#6D635B" stroke-width="1.5" stroke-linecap="round" stroke-linejoin="round"/>
<path d="M11.5532 6.45515L12.847 4.60828" stroke="#6D635B" stroke-width="1.5" stroke-linecap="round" stroke-linejoin="round"/>
<path d="M5.56276 13.0833C5.03705 12.4642 4.68449 11.717 4.54088 10.9177C4.35043 9.83632 4.56189 8.72266 5.13545 7.7864C5.709 6.85014 6.60508 6.15587 7.65492 5.83435C8.70477 5.51283 9.83595 5.58623 10.8354 6.04074C11.8349 6.49525 12.6338 7.29949 13.0815 8.30203" stroke="#6D635B" stroke-width="1.5" stroke-linecap="round" stroke-linejoin="round"/>
</svg>
