<svg width="25" height="25" viewBox="0 0 25 25" fill="none" xmlns="http://www.w3.org/2000/svg">
<path d="M8.2251 12.4885C8.2251 11.0052 8.66496 9.55512 9.48908 8.32175C10.3132 7.08838 11.4845 6.12709 12.855 5.55943C14.2254 4.99178 15.7334 4.84325 17.1883 5.13264C18.6431 5.42203 19.9795 6.13633 21.0284 7.18523C22.0773 8.23412 22.7916 9.57049 23.081 11.0254C23.3704 12.4802 23.2219 13.9882 22.6542 15.3587C22.0865 16.7291 21.1252 17.9004 19.8919 18.7246C18.6585 19.5487 17.2085 19.9885 15.7251 19.9885H7.4751C6.08271 19.9885 4.74735 19.4354 3.76279 18.4508C2.77822 17.4663 2.2251 16.1309 2.2251 14.7385C2.2251 13.3461 2.77822 12.0108 3.76279 11.0262C4.74735 10.0417 6.08271 9.48853 7.4751 9.48853C7.91434 9.48836 8.35196 9.54189 8.77822 9.6479" stroke="#6D635B" stroke-width="1.5" stroke-linecap="round" stroke-linejoin="round"/>
</svg>
