<svg width="25" height="25" viewBox="0 0 25 25" fill="none" xmlns="http://www.w3.org/2000/svg">
<path d="M8.9751 9.39154C8.9751 8.13069 9.34899 6.89815 10.0495 5.84978C10.75 4.80142 11.7456 3.98432 12.9105 3.50181C14.0754 3.0193 15.3572 2.89306 16.5938 3.13904C17.8304 3.38502 18.9663 3.99218 19.8579 4.88374C20.7495 5.7753 21.3566 6.91121 21.6026 8.14784C21.8486 9.38447 21.7223 10.6663 21.2398 11.8312C20.7573 12.996 19.9402 13.9917 18.8919 14.6922C17.8435 15.3927 16.611 15.7665 15.3501 15.7665H7.8501C6.75608 15.7665 5.70687 15.3319 4.93328 14.5584C4.15969 13.7848 3.7251 12.7356 3.7251 11.6415C3.7251 10.5475 4.15969 9.49832 4.93328 8.72473C5.70687 7.95114 6.75608 7.51654 7.8501 7.51654C8.30656 7.5142 8.76004 7.5903 9.19072 7.74154" stroke="#6D635B" stroke-width="1.5" stroke-linecap="round" stroke-linejoin="round"/>
<path d="M8.7251 19.1415C8.7251 19.6248 8.33335 20.0165 7.8501 20.0165C7.36685 20.0165 6.9751 19.6248 6.9751 19.1415C6.9751 18.6583 7.36685 18.2665 7.8501 18.2665C8.33335 18.2665 8.7251 18.6583 8.7251 19.1415Z" fill="#6D635B" stroke="#6D635B" stroke-width="0.125"/>
<path d="M12.4751 20.6415C12.4751 21.1248 12.0833 21.5165 11.6001 21.5165C11.1168 21.5165 10.7251 21.1248 10.7251 20.6415C10.7251 20.1583 11.1168 19.7665 11.6001 19.7665C12.0833 19.7665 12.4751 20.1583 12.4751 20.6415Z" fill="#6D635B" stroke="#6D635B" stroke-width="0.125"/>
<path d="M16.1001 20.079C16.6179 20.079 17.0376 19.6593 17.0376 19.1415C17.0376 18.6238 16.6179 18.204 16.1001 18.204C15.5823 18.204 15.1626 18.6238 15.1626 19.1415C15.1626 19.6593 15.5823 20.079 16.1001 20.079Z" fill="#6D635B"/>
<path d="M7.1001 23.829C7.61786 23.829 8.0376 23.4093 8.0376 22.8915C8.0376 22.3738 7.61786 21.954 7.1001 21.954C6.58233 21.954 6.1626 22.3738 6.1626 22.8915C6.1626 23.4093 6.58233 23.829 7.1001 23.829Z" fill="#6D635B"/>
<path d="M15.3501 23.829C15.8679 23.829 16.2876 23.4093 16.2876 22.8915C16.2876 22.3738 15.8679 21.954 15.3501 21.954C14.8323 21.954 14.4126 22.3738 14.4126 22.8915C14.4126 23.4093 14.8323 23.829 15.3501 23.829Z" fill="#6D635B"/>
</svg>
