<svg width="25" height="25" viewBox="0 0 25 25" fill="none" xmlns="http://www.w3.org/2000/svg">
<path d="M8.20459 12.4885C8.20459 11.0052 8.64446 9.55512 9.46857 8.32175C10.2927 7.08838 11.464 6.12709 12.8345 5.55943C14.2049 4.99178 15.7129 4.84325 17.1678 5.13264C18.6226 5.42203 19.959 6.13633 21.0079 7.18523C22.0568 8.23412 22.7711 9.57049 23.0605 11.0254C23.3499 12.4802 23.2013 13.9882 22.6337 15.3587C22.066 16.7291 21.1047 17.9004 19.8714 18.7246C18.638 19.5487 17.1879 19.9885 15.7046 19.9885H7.45459C6.0622 19.9885 4.72685 19.4354 3.74228 18.4508C2.75771 17.4663 2.20459 16.1309 2.20459 14.7385C2.20459 13.3461 2.75771 12.0108 3.74228 11.0262C4.72685 10.0417 6.0622 9.48853 7.45459 9.48853C7.89384 9.48836 8.33146 9.54189 8.75771 9.6479" stroke="black" stroke-width="1.5" stroke-linecap="round" stroke-linejoin="round"/>
</svg>
