<svg width="25" height="25" viewBox="0 0 25 25" fill="none" xmlns="http://www.w3.org/2000/svg">
<path d="M12.7251 22.6436L15.1907 18.8936" stroke="#6D635B" stroke-width="1.5" stroke-linecap="round" stroke-linejoin="round"/>
<path d="M9.97803 19.6436L12.9405 15.1436" stroke="#6D635B" stroke-width="1.5" stroke-linecap="round" stroke-linejoin="round"/>
<path d="M8.9751 8.76856C8.9751 7.5077 9.34899 6.27516 10.0495 5.2268C10.75 4.17843 11.7456 3.36133 12.9105 2.87883C14.0754 2.39632 15.3572 2.27007 16.5938 2.51605C17.8304 2.76203 18.9663 3.36919 19.8579 4.26075C20.7495 5.15231 21.3566 6.28823 21.6026 7.52486C21.8486 8.76149 21.7223 10.0433 21.2398 11.2082C20.7573 12.373 19.9402 13.3687 18.8919 14.0692C17.8435 14.7697 16.611 15.1436 15.3501 15.1436H7.8501C6.75608 15.1436 5.70687 14.709 4.93328 13.9354C4.15969 13.1618 3.7251 12.1126 3.7251 11.0186C3.7251 9.92454 4.15969 8.87533 4.93328 8.10174C5.70687 7.32815 6.75608 6.89356 7.8501 6.89356C8.30656 6.89121 8.76004 6.96732 9.19072 7.11856" stroke="#6D635B" stroke-width="1.5" stroke-linecap="round" stroke-linejoin="round"/>
</svg>
