<svg width="25" height="25" viewBox="0 0 25 25" fill="none" xmlns="http://www.w3.org/2000/svg">
<path d="M11.9546 19.6115C12.9901 19.6115 13.8296 18.772 13.8296 17.7365C13.8296 16.701 12.9901 15.8615 11.9546 15.8615C10.9191 15.8615 10.0796 16.701 10.0796 17.7365C10.0796 18.772 10.9191 19.6115 11.9546 19.6115Z" stroke="black" stroke-width="1.5" stroke-linecap="round" stroke-linejoin="round"/>
<path d="M11.9546 15.8615V11.3615" stroke="black" stroke-width="1.5" stroke-linecap="round" stroke-linejoin="round"/>
<path d="M20.5796 4.61151V7.61151" stroke="black" stroke-width="1.5" stroke-linecap="round" stroke-linejoin="round"/>
<path d="M17.7295 6.68341L20.5795 7.61154" stroke="black" stroke-width="1.5" stroke-linecap="round" stroke-linejoin="round"/>
<path d="M18.8169 10.0396L20.5794 7.61151" stroke="black" stroke-width="1.5" stroke-linecap="round" stroke-linejoin="round"/>
<path d="M22.3421 10.0396L20.5796 7.61151" stroke="black" stroke-width="1.5" stroke-linecap="round" stroke-linejoin="round"/>
<path d="M23.4296 6.68341L20.5796 7.61154" stroke="black" stroke-width="1.5" stroke-linecap="round" stroke-linejoin="round"/>
<path d="M8.95459 13.8928V4.61151C8.95459 3.81586 9.27066 3.0528 9.83327 2.49019C10.3959 1.92758 11.1589 1.61151 11.9546 1.61151C12.7502 1.61151 13.5133 1.92758 14.0759 2.49019C14.6385 3.0528 14.9546 3.81586 14.9546 4.61151V13.8928C15.7547 14.5174 16.3399 15.3763 16.6285 16.3496C16.917 17.3228 16.8946 18.3618 16.5643 19.3217C16.234 20.2816 15.6122 21.1144 14.7859 21.7039C13.9595 22.2935 12.9697 22.6104 11.9546 22.6104C10.9395 22.6104 9.94968 22.2935 9.12331 21.7039C8.29695 21.1144 7.67523 20.2816 7.34491 19.3217C7.01459 18.3618 6.99214 17.3228 7.28071 16.3496C7.56927 15.3763 8.15445 14.5174 8.95459 13.8928V13.8928Z" stroke="black" stroke-width="1.5" stroke-linecap="round" stroke-linejoin="round"/>
</svg>
