<svg width="25" height="25" viewBox="0 0 25 25" fill="none" xmlns="http://www.w3.org/2000/svg">
<path d="M12.7251 22.6115L15.1907 18.8615H10.4751L12.9407 15.1115" stroke="#6D635B" stroke-width="1.5" stroke-linecap="round" stroke-linejoin="round"/>
<path d="M8.9751 8.73651C8.9751 7.47566 9.34899 6.24312 10.0495 5.19475C10.75 4.14639 11.7456 3.32929 12.9105 2.84678C14.0754 2.36427 15.3572 2.23803 16.5938 2.48401C17.8304 2.72999 18.9663 3.33715 19.8579 4.22871C20.7495 5.12027 21.3566 6.25618 21.6026 7.49281C21.8486 8.72944 21.7223 10.0112 21.2398 11.1761C20.7573 12.341 19.9402 13.3366 18.8919 14.0371C17.8435 14.7376 16.611 15.1115 15.3501 15.1115H7.8501C6.75608 15.1115 5.70687 14.6769 4.93328 13.9033C4.15969 13.1297 3.7251 12.0805 3.7251 10.9865C3.7251 9.8925 4.15969 8.84329 4.93328 8.0697C5.70687 7.29611 6.75608 6.86151 7.8501 6.86151C8.30656 6.85917 8.76004 6.93527 9.19072 7.08651" stroke="#6D635B" stroke-width="1.5" stroke-linecap="round" stroke-linejoin="round"/>
</svg>
