<svg width="25" height="25" viewBox="0 0 25 25" fill="none" xmlns="http://www.w3.org/2000/svg">
<path d="M12.7046 22.6115L15.1702 18.8615H10.4546L12.9202 15.1115" stroke="black" stroke-width="1.5" stroke-linecap="round" stroke-linejoin="round"/>
<path d="M8.95459 8.73651C8.95459 7.47566 9.32848 6.24312 10.029 5.19475C10.7295 4.14639 11.7251 3.32929 12.89 2.84678C14.0549 2.36427 15.3367 2.23803 16.5733 2.48401C17.8099 2.72999 18.9458 3.33715 19.8374 4.22871C20.729 5.12027 21.3361 6.25618 21.5821 7.49281C21.8281 8.72944 21.7018 10.0112 21.2193 11.1761C20.7368 12.341 19.9197 13.3366 18.8714 14.0371C17.823 14.7376 16.5904 15.1115 15.3296 15.1115H7.82959C6.73557 15.1115 5.68636 14.6769 4.91277 13.9033C4.13919 13.1297 3.70459 12.0805 3.70459 10.9865C3.70459 9.8925 4.13919 8.84329 4.91277 8.0697C5.68636 7.29611 6.73557 6.86151 7.82959 6.86151C8.28605 6.85917 8.73953 6.93527 9.17022 7.08651" stroke="black" stroke-width="1.5" stroke-linecap="round" stroke-linejoin="round"/>
</svg>
