<svg width="25" height="25" viewBox="0 0 25 25" fill="none" xmlns="http://www.w3.org/2000/svg">
<path d="M11.9546 20.2665C12.9901 20.2665 13.8296 19.4271 13.8296 18.3915C13.8296 17.356 12.9901 16.5165 11.9546 16.5165C10.9191 16.5165 10.0796 17.356 10.0796 18.3915C10.0796 19.4271 10.9191 20.2665 11.9546 20.2665Z" stroke="black" stroke-width="1.5" stroke-linecap="round" stroke-linejoin="round"/>
<path d="M11.9546 16.5165V5.26654" stroke="black" stroke-width="1.5" stroke-linecap="round" stroke-linejoin="round"/>
<path d="M23.2325 8.26653C23.0584 8.44086 22.8516 8.57916 22.624 8.67351C22.3963 8.76787 22.1524 8.81644 21.906 8.81644C21.6596 8.81644 21.4156 8.76787 21.1879 8.67351C20.9603 8.57916 20.7535 8.44086 20.5794 8.26653C20.4053 8.0922 20.1985 7.9539 19.9708 7.85954C19.7432 7.76518 19.4992 7.71661 19.2528 7.71661C19.0064 7.71661 18.7624 7.76518 18.5348 7.85954C18.3072 7.9539 18.1004 8.0922 17.9263 8.26653" stroke="black" stroke-width="1.5" stroke-linecap="round" stroke-linejoin="round"/>
<path d="M23.2325 12.0165C23.0584 12.1909 22.8516 12.3292 22.624 12.4235C22.3963 12.5179 22.1524 12.5664 21.906 12.5664C21.6596 12.5664 21.4156 12.5179 21.1879 12.4235C20.9603 12.3292 20.7535 12.1909 20.5794 12.0165C20.4053 11.8422 20.1985 11.7039 19.9708 11.6095C19.7432 11.5152 19.4992 11.4666 19.2528 11.4666C19.0064 11.4666 18.7624 11.5152 18.5348 11.6095C18.3072 11.7039 18.1004 11.8422 17.9263 12.0165" stroke="black" stroke-width="1.5" stroke-linecap="round" stroke-linejoin="round"/>
<path d="M8.95459 14.5478V5.26654C8.95459 4.47089 9.27066 3.70783 9.83327 3.14522C10.3959 2.58261 11.1589 2.26654 11.9546 2.26654C12.7502 2.26654 13.5133 2.58261 14.0759 3.14522C14.6385 3.70783 14.9546 4.47089 14.9546 5.26654V14.5478C15.7547 15.1725 16.3399 16.0314 16.6285 17.0046C16.917 17.9778 16.8946 19.0169 16.5643 19.9767C16.234 20.9366 15.6122 21.7694 14.7859 22.359C13.9595 22.9485 12.9697 23.2654 11.9546 23.2654C10.9395 23.2654 9.94968 22.9485 9.12331 22.359C8.29695 21.7694 7.67523 20.9366 7.34491 19.9767C7.01459 19.0169 6.99214 17.9778 7.28071 17.0046C7.56927 16.0314 8.15445 15.1725 8.95459 14.5478V14.5478Z" stroke="black" stroke-width="1.5" stroke-linecap="round" stroke-linejoin="round"/>
</svg>
