<svg width="25" height="25" viewBox="0 0 25 25" fill="none" xmlns="http://www.w3.org/2000/svg">
<path d="M9.41573 20.9585H5.2251C5.02619 20.9585 4.83542 20.8795 4.69477 20.7389C4.55412 20.5982 4.4751 20.4074 4.4751 20.2085V16.0179C4.47476 15.9205 4.49363 15.824 4.53063 15.7339C4.56763 15.6438 4.62203 15.5619 4.69073 15.4929L15.9407 4.24291C16.0105 4.17205 16.0937 4.11577 16.1854 4.07736C16.2772 4.03895 16.3756 4.01917 16.4751 4.01917C16.5746 4.01917 16.673 4.03895 16.7648 4.07736C16.8565 4.11577 16.9397 4.17205 17.0095 4.24291L21.1907 8.42416C21.2616 8.49395 21.3179 8.57713 21.3563 8.66887C21.3947 8.76061 21.4145 8.85908 21.4145 8.95854C21.4145 9.05799 21.3947 9.15646 21.3563 9.2482C21.3179 9.33994 21.2616 9.42312 21.1907 9.49291L9.94073 20.7429C9.87169 20.8116 9.78979 20.866 9.6997 20.903C9.60962 20.94 9.51312 20.9589 9.41573 20.9585V20.9585Z" stroke="black" stroke-width="1.5" stroke-linecap="round" stroke-linejoin="round"/>
<path d="M13.4751 6.70856L18.7251 11.9586" stroke="black" stroke-width="1.5" stroke-linecap="round" stroke-linejoin="round"/>
<path d="M16.1001 9.33356L7.1001 18.3336" stroke="black" stroke-width="1.5" stroke-linecap="round" stroke-linejoin="round"/>
<path d="M9.67822 20.9117L4.52197 15.7554" stroke="black" stroke-width="1.5" stroke-linecap="round" stroke-linejoin="round"/>
</svg>
