<svg width="1426" height="265" viewBox="0 0 1426 265" fill="none" xmlns="http://www.w3.org/2000/svg">
<g clip-path="url(#clip0_881_84026)">
<path d="M369.918 117.99C369.918 119.44 368.738 120.62 367.288 120.62H347.578C346.088 120.65 344.848 119.48 344.788 117.99V4.46991C344.818 2.98991 346.038 1.80992 347.528 1.83992C347.548 1.83992 347.568 1.83992 347.588 1.83992H426.388C427.828 1.86992 428.988 3.02991 429.018 4.46991V21.5599C428.988 22.9999 427.828 24.1599 426.388 24.1899H369.928V49.8199H418.718C420.158 49.8499 421.318 51.0099 421.348 52.4499V69.3199C421.408 70.7999 420.258 72.0499 418.778 72.1099C418.758 72.1099 418.738 72.1099 418.718 72.1099H369.928V118L369.918 117.99Z" fill="#F6F5F4"/>
<path d="M478.178 22.98V58.03H502.598C507.888 58.5 513.198 57.48 517.928 55.07C522.588 51.82 525.238 46.4 524.938 40.72C525.308 35.14 522.808 29.75 518.308 26.43C514.178 24.03 509.448 22.83 504.668 22.98H478.168H478.178ZM526.638 75.77L552.318 116.08C553.518 118.16 553.688 120.63 550.728 120.63H528.828C526.748 121 524.678 119.92 523.788 118L500.408 79.67H478.178V118C478.208 119.42 477.078 120.6 475.658 120.63C475.618 120.63 475.588 120.63 475.548 120.63H455.888C454.398 120.66 453.158 119.49 453.098 118V4.46997C453.128 2.98997 454.348 1.80997 455.838 1.83997C455.858 1.83997 455.878 1.83997 455.898 1.83997H506.768C517.378 1.21997 527.908 4.03997 536.778 9.88997C545.968 17.28 551.088 28.61 550.578 40.39C550.828 51.61 545.948 62.34 537.328 69.52C534.048 72.23 530.348 74.39 526.378 75.93L526.648 75.77H526.638Z" fill="#F6F5F4"/>
<path d="M662.838 1.83989C664.318 1.77989 665.568 2.92989 665.628 4.40989C665.628 4.42989 665.628 4.44989 665.628 4.46989V21.5599C665.568 23.0499 664.328 24.2199 662.838 24.1899H601.118V49.8199H653.798C655.238 49.8499 656.398 51.0099 656.428 52.4499V69.3199C656.458 70.8099 655.288 72.0499 653.798 72.1099H601.118V98.4499H662.838C664.288 98.3599 665.538 99.4599 665.628 100.91C665.628 100.97 665.628 101.02 665.628 101.08V118C665.568 119.49 664.328 120.66 662.838 120.63H578.828C577.338 120.66 576.098 119.49 576.038 118V4.46989C576.068 2.98989 577.288 1.80989 578.778 1.83989C578.798 1.83989 578.818 1.83989 578.838 1.83989H662.848H662.838Z" fill="#F6F5F4"/>
<path d="M687.488 111.2C686.278 110.64 685.758 109.2 686.318 108C686.338 107.95 686.368 107.91 686.388 107.86L694.708 90.9399C695.088 89.8199 696.298 89.2199 697.418 89.5999C697.628 89.6699 697.818 89.7699 697.998 89.8999C707.318 96.6399 718.428 100.46 729.928 100.85C734.728 101.14 739.498 99.9199 743.568 97.3499C746.808 94.9999 748.688 91.2199 748.608 87.2199C748.608 80.0999 742.308 76.2699 733.768 73.3099C724.348 69.8099 712.518 67.5099 702.388 61.2599C692.588 55.7399 686.738 45.1699 687.278 33.9299C687.088 24.0999 691.708 14.7999 699.658 9.00993C709.388 2.61993 720.888 -0.510066 732.518 0.079934C745.758 -0.220066 758.848 2.90993 770.528 9.16993C771.678 9.61993 772.248 10.9299 771.798 12.0799C771.738 12.2299 771.668 12.3699 771.578 12.5099L763.578 29.3799C763.098 30.4899 761.808 30.9999 760.698 30.5299C760.538 30.4599 760.378 30.3699 760.238 30.2599C751.388 25.1099 741.398 22.2499 731.158 21.9399C726.658 21.7299 722.188 22.7499 718.238 24.8999C715.518 26.6499 713.868 29.6599 713.858 32.8999C713.858 39.3599 720.158 42.6499 729.028 45.6599C739.488 48.9499 752.248 51.1399 762.158 58.1999C771.068 64.0799 776.238 74.1999 775.798 84.8699C776.168 95.5899 771.278 105.81 762.708 112.25C753.178 119.15 741.608 122.66 729.848 122.22C714.948 122.49 700.258 118.7 687.348 111.27L687.508 111.22L687.488 111.2Z" fill="#F6F5F4"/>
<path d="M903.848 1.83994C905.288 1.86994 906.448 3.02994 906.478 4.46994V117.99C906.448 119.43 905.288 120.59 903.848 120.62H883.968C882.548 120.56 881.418 119.41 881.398 117.99V71.9299H827.348V117.99C827.348 119.44 826.168 120.62 824.718 120.62H805.008C803.518 120.65 802.278 119.48 802.218 117.99V4.46994C802.248 2.98994 803.468 1.80994 804.958 1.83994C804.978 1.83994 804.998 1.83994 805.018 1.83994H824.728C826.148 1.80994 827.328 2.93994 827.358 4.35994C827.358 4.39994 827.358 4.42994 827.358 4.46994V49.8099H881.408V4.46994C881.408 3.03994 882.548 1.86994 883.978 1.83994H903.858H903.848Z" fill="#F6F5F4"/>
<path d="M966.498 117.99C966.528 119.41 965.398 120.59 963.978 120.62C963.938 120.62 963.908 120.62 963.868 120.62H944.158C942.668 120.65 941.428 119.48 941.368 117.99V4.46991C941.398 2.98991 942.618 1.80992 944.108 1.83992C944.128 1.83992 944.148 1.83992 944.168 1.83992H1023.3C1024.73 1.86992 1025.87 3.03991 1025.87 4.46991V21.5599C1025.84 22.9799 1024.71 24.1299 1023.3 24.1899H966.508V49.8199H1015.3C1016.74 49.8499 1017.9 51.0099 1017.93 52.4499V69.3199C1017.99 70.7999 1016.84 72.0499 1015.36 72.1099C1015.34 72.1099 1015.32 72.1099 1015.3 72.1099H966.508V118L966.498 117.99Z" fill="#F6F5F4"/>
<path d="M1080.73 29.9399C1075.6 35.6599 1072.96 43.1899 1073.39 50.8599V64.1099H1120.98V50.8599C1121.38 43.2299 1118.83 35.7399 1113.86 29.9399C1109.31 25.7299 1103.3 23.4699 1097.1 23.6399C1091 23.4699 1085.09 25.7399 1080.67 29.9399H1080.72H1080.73ZM1146.12 118C1146.06 119.43 1144.92 120.57 1143.49 120.63H1123.61C1122.18 120.57 1121.04 119.43 1120.98 118V86.4599H1073.39V118C1073.36 119.44 1072.2 120.6 1070.76 120.63H1050.66C1049.23 120.57 1048.09 119.43 1048.03 118V49.8099C1047.77 34.8899 1054.17 20.6399 1065.5 10.9299C1084.06 -3.30005 1109.86 -3.30005 1128.42 10.9299C1139.84 20.5699 1146.26 34.8699 1145.89 49.8099V117.99H1146.11L1146.12 118Z" fill="#F6F5F4"/>
<path d="M1203.13 22.98V58.03H1227.55C1232.84 58.5 1238.15 57.48 1242.88 55.07C1247.65 51.83 1250.38 46.32 1250.05 40.56C1250.42 34.98 1247.92 29.59 1243.42 26.27C1239.22 23.89 1234.44 22.75 1229.62 22.98H1203.12H1203.13ZM1251.59 75.77L1277.44 116.08C1278.64 118.16 1278.81 120.63 1275.85 120.63H1253.95C1251.87 121 1249.8 119.92 1248.91 118L1225.53 79.67H1203.02V118C1203.05 119.42 1201.92 120.6 1200.5 120.63C1200.46 120.63 1200.43 120.63 1200.39 120.63H1180.73C1179.24 120.66 1178 119.49 1177.94 118V4.46997C1177.97 2.98997 1179.19 1.80997 1180.68 1.83997C1180.7 1.83997 1180.72 1.83997 1180.74 1.83997H1231.61C1242.22 1.21997 1252.75 4.03997 1261.62 9.88997C1270.81 17.28 1275.93 28.61 1275.42 40.39C1275.67 51.61 1270.79 62.34 1262.17 69.52C1258.97 72.2 1255.36 74.36 1251.49 75.93L1251.6 75.77H1251.59Z" fill="#F6F5F4"/>
<path d="M1425.63 117.99C1425.57 119.46 1424.36 120.62 1422.89 120.62H1404.05C1402.56 120.65 1401.32 119.48 1401.26 117.99V45.43L1375.96 89.57C1375.37 91.34 1373.66 92.48 1371.8 92.36H1357.34C1355.49 92.43 1353.82 91.3 1353.18 89.57L1327.17 45.43V117.99C1327.11 119.48 1325.87 120.65 1324.38 120.62H1305.54C1304.06 120.62 1302.83 119.47 1302.75 117.99V4.46998C1302.81 2.97998 1304.05 1.80998 1305.54 1.83998H1325.42C1327.49 1.60998 1329.48 2.72998 1330.35 4.62998L1364.14 63.39L1398.15 4.62998C1398.89 2.72998 1400.83 1.56998 1402.86 1.83998H1423.07C1424.55 1.80998 1425.78 2.98998 1425.81 4.46998V117.99H1425.65H1425.63Z" fill="#F6F5F4"/>
<path d="M55.2477 132.34C55.2477 173.41 55.2477 214.48 55.2477 255.55C55.2477 257.13 55.1377 258.66 54.3877 260.11C53.4077 261.98 51.9277 262.95 49.8277 262.95C46.7977 262.95 43.7777 262.95 40.7477 262.95C38.1577 262.95 35.9677 261.17 35.4577 258.61C35.2677 257.63 35.1677 256.61 35.1677 255.61C35.1477 173.25 35.1477 90.8801 35.1377 8.52009C35.1377 7.08009 35.3877 5.72009 36.0577 4.48009C36.9977 2.74009 38.3977 1.67009 40.4877 1.69009C43.2877 1.72009 46.0877 1.69009 48.8877 1.70009C53.0677 1.71009 55.2177 3.87009 55.2377 8.13009C55.2577 12.6701 55.2377 17.2101 55.2377 21.7501C55.2377 58.6201 55.2377 95.4901 55.2377 132.35L55.2477 132.34Z" fill="#F6F5F4"/>
<path d="M20.7279 132.31C20.7279 173.54 20.7279 214.76 20.7279 255.99C20.7279 257.88 20.4779 259.66 19.1579 261.15C18.0879 262.36 16.7879 262.96 15.1679 262.95C12.4779 262.93 9.78789 262.95 7.09789 262.95C2.98789 262.95 0.797891 260.78 0.787891 256.61C0.767891 247.09 0.777891 237.56 0.777891 228.04C0.787891 155.05 0.787891 82.0601 0.787891 9.07007C0.787891 7.89007 0.767891 6.72007 1.13789 5.58007C1.96789 3.01007 3.67789 1.71007 6.33789 1.70007C9.13789 1.69007 11.9479 1.86007 14.7379 1.65007C18.6179 1.35007 20.3979 4.39007 20.6779 7.12007C20.7979 8.29007 20.7279 9.47007 20.7279 10.6501C20.7279 51.2101 20.7279 91.7601 20.7279 132.32V132.31Z" fill="#F6F5F4"/>
<path d="M166.818 124.75C136.288 124.75 105.768 124.75 75.2381 124.76C73.9181 124.76 72.6681 124.61 71.5081 123.97C69.9281 123.11 68.9481 121.93 69.0081 119.97C69.0981 116.84 69.2381 113.68 68.9781 110.57C68.6181 106.31 71.7981 104.67 75.0081 104.65C83.2981 104.61 91.5881 104.62 99.8781 104.62C140.488 104.62 181.098 104.62 221.708 104.62C233.748 104.62 245.798 104.62 257.838 104.6C258.968 104.6 260.078 104.72 261.168 104.94C263.548 105.44 265.028 107.27 265.038 109.72C265.058 112.86 265.048 115.99 265.038 119.13C265.038 122.57 263.358 124.4 259.908 124.7C259.018 124.78 258.118 124.74 257.218 124.74C227.088 124.74 196.948 124.74 166.818 124.74V124.75Z" fill="#F6F5F4"/>
<path d="M166.738 262.3C135.938 262.3 105.128 262.3 74.3279 262.3C71.8279 262.3 69.8379 261.56 68.7379 259.14C68.4279 258.45 68.3779 257.74 68.3779 257.01C68.3779 253.93 68.5179 250.84 68.3379 247.77C68.1579 244.73 70.3579 242.67 73.3479 242.42C73.6779 242.39 74.0179 242.42 74.3579 242.42C135.858 242.42 197.358 242.42 258.848 242.4C260.418 242.4 261.868 242.66 263.148 243.53C264.438 244.41 265.048 245.68 265.038 247.25C265.018 250.5 265.038 253.75 265.008 257C264.978 260.31 263.118 262.2 259.818 262.28C258.248 262.32 256.678 262.28 255.118 262.28C225.658 262.28 196.198 262.28 166.738 262.28V262.3Z" fill="#F6F5F4"/>
<path d="M166.738 208.09C197.148 208.09 227.568 208.09 257.978 208.09C258.648 208.09 259.318 208.08 259.998 208.1C263.078 208.2 264.998 210.13 265.028 213.2C265.058 216.22 264.878 219.26 265.078 222.27C265.308 225.61 262.728 227.91 259.468 227.97C258.968 227.97 258.458 227.97 257.958 227.97C196.968 227.97 135.968 227.97 74.9777 227.97C73.2177 227.97 71.5677 227.79 70.0877 226.62C68.9077 225.69 68.4077 224.56 68.3877 223.16C68.3577 219.69 68.3577 216.21 68.3877 212.74C68.4077 210.41 70.3077 208.37 72.6477 208.13C73.4277 208.05 74.2177 208.08 74.9977 208.08C105.578 208.08 136.158 208.08 166.738 208.08V208.09Z" fill="#F6F5F4"/>
<path d="M166.868 90.2001C136.338 90.2001 105.818 90.2001 75.2878 90.2001C73.9878 90.2001 72.6778 90.2201 71.5378 89.5301C70.0378 88.6301 68.9578 87.4801 69.0078 85.5101C69.0878 82.2101 69.1978 78.8901 68.9878 75.6001C68.7678 72.3001 71.6978 70.3401 74.2378 70.3101C76.5378 70.2801 78.8278 70.3101 81.1278 70.3101C140.278 70.3101 199.418 70.3101 258.568 70.3001C260.048 70.3001 261.468 70.4201 262.778 71.1901C264.198 72.0201 265.018 73.2301 265.038 74.8701C265.078 78.4001 265.098 81.9301 265.018 85.4601C264.958 88.3801 262.858 90.1901 259.628 90.2001C250.948 90.2201 242.268 90.2201 233.588 90.2201C211.348 90.2201 189.118 90.2201 166.878 90.2201L166.868 90.2001Z" fill="#F6F5F4"/>
<path d="M236.488 1.42003C244.108 1.42003 251.728 1.42003 259.338 1.42003C263.118 1.42003 265.028 3.30003 265.038 7.06003C265.038 9.97003 265.038 12.89 265.038 15.8C265.038 19.64 263.158 21.51 259.248 21.52C249.728 21.53 240.198 21.52 230.678 21.52C224.968 21.52 219.248 21.52 213.538 21.52C212.348 21.52 211.198 21.38 210.118 20.85C208.398 20.01 207.498 18.69 207.528 16.72C207.578 13.58 207.548 10.45 207.538 7.31003C207.538 3.24003 209.368 1.41003 213.448 1.41003C221.118 1.41003 228.798 1.41003 236.468 1.41003L236.488 1.42003Z" fill="#F6F5F4"/>
<path d="M236.258 159.09C228.588 159.09 220.918 159.09 213.248 159.09C209.118 159.09 207.528 157.5 207.538 153.44C207.538 150.36 207.538 147.28 207.538 144.2C207.538 141.25 209.428 139.26 212.398 139.21C215.198 139.16 217.998 139.21 220.798 139.21C233.618 139.21 246.438 139.21 259.248 139.21C263.278 139.21 265.028 140.96 265.038 145.02C265.038 147.93 265.058 150.84 265.038 153.75C265.028 157.14 263.148 159.07 259.768 159.08C251.928 159.11 244.098 159.08 236.258 159.09Z" fill="#F6F5F4"/>
<path d="M236.198 55.8701C228.578 55.8701 220.958 55.8701 213.338 55.8701C211.728 55.8701 210.228 55.6201 208.978 54.4801C208.018 53.6001 207.498 52.6001 207.518 51.2401C207.568 47.7101 207.518 44.1801 207.518 40.6501C207.518 38.2301 209.228 36.3101 211.668 36.0201C212.168 35.9601 212.678 35.9601 213.178 35.9601C228.588 35.9601 243.998 35.9601 259.398 35.9601C260.528 35.9601 261.638 35.9901 262.638 36.6301C264.148 37.6001 265.068 38.8701 265.038 40.7701C264.988 43.9101 265.038 47.0501 265.028 50.1801C265.028 54.0001 263.128 55.8501 259.218 55.8501C251.538 55.8501 243.868 55.8501 236.188 55.8501L236.198 55.8701Z" fill="#F6F5F4"/>
<path d="M236.188 193.42C228.468 193.42 220.738 193.33 213.018 193.46C209.708 193.51 207.188 191.41 207.498 187.91C207.738 185.13 207.548 182.32 207.548 179.52C207.548 175.27 209.348 173.52 213.688 173.52C218.778 173.52 223.878 173.52 228.968 173.52C239.038 173.52 249.118 173.52 259.188 173.52C263.158 173.52 265.038 175.37 265.048 179.33C265.048 182.35 265.048 185.37 265.048 188.4C265.038 191.52 263.188 193.4 260.038 193.4C252.088 193.42 244.148 193.4 236.198 193.4L236.188 193.42Z" fill="#F6F5F4"/>
<path d="M124.158 29.0601C124.158 36.3401 124.158 43.6101 124.158 50.8901C124.158 54.9301 122.618 56.4901 118.628 56.5001C115.498 56.5001 112.358 56.5101 109.228 56.5001C105.858 56.4901 104.108 54.7401 104.098 51.3101C104.078 43.2001 104.098 35.0801 104.098 26.9701C104.098 20.4201 104.098 13.8701 104.088 7.33006C104.088 6.31006 104.218 5.33006 104.588 4.38006C105.328 2.49006 106.388 1.72006 108.398 1.71006C111.978 1.69006 115.558 1.71006 119.148 1.71006C122.468 1.71006 124.148 3.37006 124.168 6.75006C124.198 12.0101 124.168 17.2701 124.168 22.5301C124.168 24.7101 124.168 26.9001 124.168 29.0801L124.158 29.0601Z" fill="#F6F5F4"/>
<path d="M193.078 29.17C193.078 36.45 193.078 43.74 193.078 51.02C193.078 54.92 191.468 56.51 187.568 56.5C184.378 56.5 181.178 56.5 177.988 56.5C174.888 56.5 173.108 54.8 173.008 51.67C172.948 49.94 172.988 48.2 172.988 46.46C172.988 33.57 172.988 20.69 172.978 7.79999C172.978 6.83999 173.018 5.89999 173.268 4.96999C173.838 2.78999 175.248 1.69999 177.508 1.68999C180.978 1.67999 184.458 1.68999 187.928 1.68999C191.368 1.68999 193.058 3.33999 193.078 6.81999C193.108 14.27 193.078 21.72 193.078 29.17Z" fill="#F6F5F4"/>
<path d="M124.158 166.4C124.158 173.63 124.158 180.85 124.158 188.08C124.158 192.07 122.578 193.64 118.568 193.65C115.428 193.65 112.298 193.65 109.158 193.65C105.948 193.64 104.098 191.79 104.088 188.54C104.068 181.54 104.088 174.54 104.088 167.53C104.088 159.97 104.088 152.41 104.088 144.84C104.088 143.82 104.178 142.83 104.568 141.88C105.348 139.93 106.438 139.18 108.548 139.18C112.018 139.18 115.498 139.18 118.968 139.18C122.538 139.18 124.158 140.79 124.168 144.38C124.188 151.72 124.168 159.06 124.168 166.39L124.158 166.4Z" fill="#F6F5F4"/>
<path d="M193.078 166.43C193.078 173.66 193.078 180.88 193.078 188.11C193.078 191.97 191.408 193.65 187.588 193.65C184.508 193.65 181.418 193.5 178.348 193.69C174.488 193.93 173.108 191.28 172.988 188.48C172.958 187.64 172.978 186.8 172.978 185.96C172.978 172.24 172.978 158.51 172.978 144.79C172.978 143.77 173.068 142.77 173.428 141.82C174.068 140.11 175.418 139.2 177.298 139.19C180.938 139.18 184.578 139.19 188.218 139.19C191.288 139.19 193.048 140.94 193.058 144.09C193.078 151.54 193.058 158.99 193.058 166.44L193.078 166.43Z" fill="#F6F5F4"/>
<path d="M158.548 29.0501C158.548 36.2801 158.548 43.5001 158.548 50.7301C158.548 55.0901 157.158 56.4901 152.878 56.5001C149.858 56.5001 146.828 56.5001 143.808 56.5001C140.328 56.5201 138.658 54.9101 138.618 51.4101C138.578 47.7101 138.608 44.0201 138.598 40.3201C138.598 29.4001 138.598 18.4801 138.598 7.55006C138.598 6.49006 138.568 5.43006 138.968 4.40006C139.618 2.71006 140.988 1.71006 142.778 1.70006C146.478 1.69006 150.168 1.68006 153.868 1.69006C156.808 1.69006 158.418 3.22006 158.518 6.20006C158.588 8.16006 158.558 10.1201 158.558 12.0801C158.558 17.7401 158.558 23.3901 158.558 29.0501H158.548Z" fill="#F6F5F4"/>
<path d="M89.6379 28.95C89.6379 36.29 89.6379 43.62 89.6379 50.96C89.6379 55.02 88.1179 56.51 84.0679 56.5C80.8779 56.5 77.6879 56.5 74.4979 56.5C71.5879 56.5 69.7979 54.79 69.7279 51.85C69.6679 49.44 69.7079 47.03 69.7079 44.63C69.7079 32.09 69.7079 19.54 69.7079 6.99998C69.7079 5.55998 69.9279 4.22998 70.8879 3.07998C71.6079 2.20998 72.4679 1.69998 73.6279 1.69998C77.7179 1.69998 81.8079 1.66998 85.8879 1.69998C87.8279 1.71998 89.4179 3.45998 89.5879 5.76998C89.7079 7.32998 89.6579 8.89998 89.6579 10.47C89.6579 16.63 89.6579 22.79 89.6579 28.95H89.6379Z" fill="#F6F5F4"/>
<path d="M69.7079 166.28C69.7079 158.95 69.7079 151.61 69.7079 144.28C69.7079 142.84 69.9879 141.5 70.9979 140.41C71.7579 139.59 72.6579 139.17 73.8179 139.18C77.6279 139.21 81.4279 139.17 85.2379 139.19C87.7179 139.2 89.4079 140.82 89.6179 143.3C89.6679 143.91 89.6479 144.53 89.6479 145.15C89.6479 159.43 89.6479 173.7 89.6479 187.98C89.6479 192.15 88.1679 193.65 84.0279 193.66C80.8379 193.66 77.6479 193.67 74.4579 193.66C71.4879 193.64 69.7279 191.87 69.7179 188.8C69.6879 181.3 69.7179 173.8 69.7179 166.29L69.7079 166.28Z" fill="#F6F5F4"/>
<path d="M158.548 166.44C158.548 173.66 158.548 180.88 158.548 188.1C158.548 192.16 157.048 193.65 152.978 193.65C149.898 193.65 146.818 193.65 143.738 193.65C140.278 193.64 138.618 192.02 138.608 188.5C138.578 177.81 138.598 167.12 138.598 156.42C138.598 152.39 138.588 148.36 138.598 144.33C138.618 140.77 140.288 139.17 143.858 139.18C147.108 139.19 150.348 139.18 153.598 139.18C156.878 139.18 158.518 140.76 158.538 144.1C158.578 150.59 158.548 157.09 158.548 163.58C158.548 164.53 158.548 165.48 158.548 166.43V166.44Z" fill="#F6F5F4"/>
<path d="M461.448 187.26H450.248V246.34H460.048V262.3H423.508V246.34H431.488V211.62H430.928L406.988 254.88H399.148L373.388 209.94H372.828V246.34H381.508V262.3H345.528V246.34H355.328V187.26H344.128V171.3H371.008L403.348 227.72H403.908L434.288 171.3H461.448V187.26ZM477.069 203.64C482.576 201.4 487.149 199.907 490.789 199.16C494.522 198.32 498.956 197.9 504.089 197.9C510.902 197.9 516.782 199.673 521.729 203.22C526.676 206.767 529.149 212.133 529.149 219.32V246.76C529.149 250.027 530.596 251.66 533.489 251.66C534.329 251.66 535.216 251.52 536.149 251.24L536.289 260.76C532.649 262.72 528.869 263.7 524.949 263.7C516.642 263.7 512.022 259.547 511.089 251.24V251.1C509.316 254.273 506.749 257.167 503.389 259.78C500.122 262.393 495.922 263.7 490.789 263.7C486.216 263.7 481.829 262.347 477.629 259.64C473.429 256.933 471.329 252.267 471.329 245.64C471.329 237.893 474.409 232.76 480.569 230.24C486.822 227.72 493.542 226.46 500.729 226.46C504.742 226.46 508.196 226.647 511.089 227.02V224.92C511.089 221.653 510.622 218.48 509.689 215.4C508.849 212.32 505.862 210.78 500.729 210.78C498.862 210.78 497.136 210.92 495.549 211.2C494.056 211.387 492.562 211.853 491.069 212.6L488.689 221.56L474.269 220.02L477.069 203.64ZM511.089 236.54V235.7C509.596 235.513 508.056 235.327 506.469 235.14C504.976 234.953 503.482 234.86 501.989 234.86C498.816 234.86 496.016 235.467 493.589 236.68C491.162 237.8 489.949 240.087 489.949 243.54C489.949 245.593 490.509 247.32 491.629 248.72C492.749 250.12 494.662 250.82 497.369 250.82C500.542 250.82 503.482 249.7 506.189 247.46C508.989 245.127 510.622 241.487 511.089 236.54ZM585.129 198.32C586.903 198.32 588.863 198.6 591.009 199.16C593.249 199.627 595.443 200.513 597.589 201.82L600.389 223.94L586.669 225.48L584.289 214.7C582.423 213.58 580.789 213.02 579.389 213.02C577.336 213.02 575.516 213.813 573.929 215.4C572.436 216.987 571.689 219.32 571.689 222.4V248.72H582.889V262.3H545.229V248.72H553.629V212.88H544.529V199.16H570.289V211.2C571.316 207.56 572.949 204.527 575.189 202.1C577.523 199.58 580.836 198.32 585.129 198.32ZM680.269 262.3H647.929V248.72H653.809L642.889 236.26H633.509V248.72H639.249V262.3H607.049V248.72H615.449V179.7H606.349V165.98H633.509V223.52H644.009L653.249 212.88H645.689V199.16H677.329V212.88H670.469L656.889 228.28L674.809 248.72H680.269V262.3ZM749.128 242.42C748.662 248.02 745.908 252.967 740.868 257.26C735.828 261.553 728.782 263.7 719.728 263.7C710.302 263.7 702.508 261.04 696.348 255.72C690.282 250.4 687.248 242.467 687.248 231.92C687.248 222.213 690.002 214.14 695.508 207.7C701.108 201.167 708.902 197.9 718.888 197.9C727.662 197.9 734.755 200.42 740.168 205.46C745.675 210.5 748.475 217.127 748.568 225.34C748.568 228.42 748.242 231.453 747.588 234.44H706.148C707.175 244.427 712.122 249.42 720.988 249.42C725.842 249.42 729.108 248.253 730.788 245.92C732.562 243.587 733.635 241.487 734.008 239.62L749.128 242.42ZM729.948 223.94C730.322 220.767 729.622 217.78 727.848 214.98C726.168 212.18 723.182 210.78 718.888 210.78C715.155 210.78 712.262 211.993 710.208 214.42C708.155 216.847 706.848 220.02 706.288 223.94H729.948ZM811.624 242.7C810.691 249.98 808.171 255.3 804.064 258.66C799.958 262.02 794.638 263.7 788.104 263.7C781.104 263.7 775.411 261.973 771.024 258.52C766.731 254.973 764.584 249.933 764.584 243.4V212.04H755.624V199.16H764.584V179.98H782.644V199.16H805.324V212.04H782.644V240.32C782.644 245.827 785.164 248.58 790.204 248.58C791.324 248.58 792.818 248.113 794.684 247.18C796.644 246.153 797.904 243.307 798.464 238.64L811.624 242.7ZM930.339 202.1L914.379 203.5L911.579 187.26H897.159V246.34H911.999V262.3H864.399V246.34H878.399V187.26H863.979L861.179 203.5L845.219 202.1L848.019 171.3H927.539L930.339 202.1ZM980.23 198.32C982.003 198.32 983.963 198.6 986.11 199.16C988.35 199.627 990.543 200.513 992.69 201.82L995.49 223.94L981.77 225.48L979.39 214.7C977.523 213.58 975.89 213.02 974.49 213.02C972.437 213.02 970.617 213.813 969.03 215.4C967.537 216.987 966.79 219.32 966.79 222.4V248.72H977.99V262.3H940.33V248.72H948.73V212.88H939.63V199.16H965.39V211.2C966.417 207.56 968.05 204.527 970.29 202.1C972.623 199.58 975.937 198.32 980.23 198.32ZM1010.39 203.64C1015.89 201.4 1020.47 199.907 1024.11 199.16C1027.84 198.32 1032.27 197.9 1037.41 197.9C1044.22 197.9 1050.1 199.673 1055.05 203.22C1059.99 206.767 1062.47 212.133 1062.47 219.32V246.76C1062.47 250.027 1063.91 251.66 1066.81 251.66C1067.65 251.66 1068.53 251.52 1069.47 251.24L1069.61 260.76C1065.97 262.72 1062.19 263.7 1058.27 263.7C1049.96 263.7 1045.34 259.547 1044.41 251.24V251.1C1042.63 254.273 1040.07 257.167 1036.71 259.78C1033.44 262.393 1029.24 263.7 1024.11 263.7C1019.53 263.7 1015.15 262.347 1010.95 259.64C1006.75 256.933 1004.65 252.267 1004.65 245.64C1004.65 237.893 1007.73 232.76 1013.89 230.24C1020.14 227.72 1026.86 226.46 1034.05 226.46C1038.06 226.46 1041.51 226.647 1044.41 227.02V224.92C1044.41 221.653 1043.94 218.48 1043.01 215.4C1042.17 212.32 1039.18 210.78 1034.05 210.78C1032.18 210.78 1030.45 210.92 1028.87 211.2C1027.37 211.387 1025.88 211.853 1024.39 212.6L1022.01 221.56L1007.59 220.02L1010.39 203.64ZM1044.41 236.54V235.7C1042.91 235.513 1041.37 235.327 1039.79 235.14C1038.29 234.953 1036.8 234.86 1035.31 234.86C1032.13 234.86 1029.33 235.467 1026.91 236.68C1024.48 237.8 1023.27 240.087 1023.27 243.54C1023.27 245.593 1023.83 247.32 1024.95 248.72C1026.07 250.12 1027.98 250.82 1030.69 250.82C1033.86 250.82 1036.8 249.7 1039.51 247.46C1042.31 245.127 1043.94 241.487 1044.41 236.54ZM1138.19 238.78C1137.53 244.567 1135.01 250.167 1130.63 255.58C1126.33 260.993 1119.1 263.7 1108.93 263.7C1099.78 263.7 1092.22 261.04 1086.25 255.72C1080.37 250.4 1077.43 242.42 1077.43 231.78C1077.43 220.58 1080.65 212.133 1087.09 206.44C1093.53 200.747 1101.32 197.9 1110.47 197.9C1113.92 197.9 1117.61 198.367 1121.53 199.3C1125.54 200.14 1129.46 201.587 1133.29 203.64L1136.09 222.82L1121.67 224.36L1119.57 214C1115.93 212.787 1112.75 212.18 1110.05 212.18C1106.22 212.18 1102.95 213.673 1100.25 216.66C1097.54 219.553 1096.19 224.313 1096.19 230.94C1096.19 243.26 1100.99 249.42 1110.61 249.42C1117.7 249.42 1121.85 244.94 1123.07 235.98L1138.19 238.78ZM1218.65 262.3H1186.31V248.72H1192.19L1181.27 236.26H1171.89V248.72H1177.63V262.3H1145.43V248.72H1153.83V179.7H1144.73V165.98H1171.89V223.52H1182.39L1191.63 212.88H1184.07V199.16H1215.71V212.88H1208.85L1195.27 228.28L1213.19 248.72H1218.65V262.3ZM1287.5 242.42C1287.04 248.02 1284.28 252.967 1279.24 257.26C1274.2 261.553 1267.16 263.7 1258.1 263.7C1248.68 263.7 1240.88 261.04 1234.72 255.72C1228.66 250.4 1225.62 242.467 1225.62 231.92C1225.62 222.213 1228.38 214.14 1233.88 207.7C1239.48 201.167 1247.28 197.9 1257.26 197.9C1266.04 197.9 1273.13 200.42 1278.54 205.46C1284.05 210.5 1286.85 217.127 1286.94 225.34C1286.94 228.42 1286.62 231.453 1285.96 234.44H1244.52C1245.55 244.427 1250.5 249.42 1259.36 249.42C1264.22 249.42 1267.48 248.253 1269.16 245.92C1270.94 243.587 1272.01 241.487 1272.38 239.62L1287.5 242.42ZM1268.32 223.94C1268.7 220.767 1268 217.78 1266.22 214.98C1264.54 212.18 1261.56 210.78 1257.26 210.78C1253.53 210.78 1250.64 211.993 1248.58 214.42C1246.53 216.847 1245.22 220.02 1244.66 223.94H1268.32ZM1337.12 198.32C1338.89 198.32 1340.85 198.6 1343 199.16C1345.24 199.627 1347.43 200.513 1349.58 201.82L1352.38 223.94L1338.66 225.48L1336.28 214.7C1334.41 213.58 1332.78 213.02 1331.38 213.02C1329.33 213.02 1327.51 213.813 1325.92 215.4C1324.43 216.987 1323.68 219.32 1323.68 222.4V248.72H1334.88V262.3H1297.22V248.72H1305.62V212.88H1296.52V199.16H1322.28V211.2C1323.31 207.56 1324.94 204.527 1327.18 202.1C1329.51 199.58 1332.83 198.32 1337.12 198.32Z" fill="#F6F5F4"/>
</g>
<defs>
<clipPath id="clip0_881_84026">
<rect width="1425" height="264.02" fill="white" transform="translate(0.788086 0.0200195)"/>
</clipPath>
</defs>
</svg>
