<svg width="1427" height="264" viewBox="0 0 1427 264" fill="none" xmlns="http://www.w3.org/2000/svg">
<g clip-path="url(#clip0_794_81229)">
<path d="M55.2604 132.005C55.2604 173.075 55.2604 214.145 55.2604 255.215C55.2604 256.795 55.1504 258.325 54.4004 259.775C53.4204 261.645 51.9404 262.615 49.8404 262.615C46.8104 262.615 43.7904 262.615 40.7604 262.615C38.1704 262.615 35.9804 260.835 35.4704 258.275C35.2804 257.295 35.1804 256.275 35.1804 255.275C35.1604 172.915 35.1604 90.5453 35.1504 8.18526C35.1504 6.74526 35.4004 5.38526 36.0704 4.14526C37.0104 2.40526 38.4104 1.33526 40.5004 1.35526C43.3004 1.38526 46.1004 1.35526 48.9004 1.36526C53.0804 1.37526 55.2304 3.53526 55.2504 7.79526C55.2704 12.3353 55.2504 16.8753 55.2504 21.4153C55.2504 58.2853 55.2504 95.1553 55.2504 132.015L55.2604 132.005Z" fill="#60A29B"/>
<path d="M20.7406 131.975C20.7406 173.205 20.7406 214.425 20.7406 255.655C20.7406 257.545 20.4906 259.325 19.1706 260.815C18.1006 262.025 16.8006 262.625 15.1806 262.615C12.4906 262.595 9.80059 262.615 7.11059 262.615C3.00059 262.615 0.810586 260.445 0.800586 256.275C0.780586 246.755 0.790586 237.225 0.790586 227.705C0.800586 154.715 0.800586 81.7252 0.800586 8.73523C0.800586 7.55523 0.780586 6.38523 1.15059 5.24523C1.98059 2.67523 3.69059 1.37523 6.35059 1.36523C9.15059 1.35523 11.9606 1.52523 14.7506 1.31523C18.6306 1.01523 20.4106 4.05523 20.6906 6.78523C20.8106 7.95523 20.7406 9.13523 20.7406 10.3152C20.7406 50.8752 20.7406 91.4252 20.7406 131.985V131.975Z" fill="#60A29B"/>
<path d="M166.831 124.415C136.301 124.415 105.781 124.415 75.2508 124.425C73.9308 124.425 72.6808 124.275 71.5208 123.635C69.9408 122.775 68.9608 121.595 69.0208 119.635C69.1108 116.505 69.2508 113.345 68.9908 110.235C68.6308 105.975 71.8108 104.335 75.0208 104.315C83.3108 104.275 91.6008 104.285 99.8908 104.285C140.501 104.285 181.111 104.285 221.721 104.285C233.761 104.285 245.811 104.285 257.851 104.265C258.981 104.265 260.091 104.385 261.181 104.605C263.561 105.105 265.041 106.935 265.051 109.385C265.071 112.525 265.061 115.655 265.051 118.795C265.051 122.235 263.371 124.065 259.921 124.365C259.031 124.445 258.131 124.405 257.231 124.405C227.101 124.405 196.961 124.405 166.831 124.405V124.415Z" fill="#85C4BC"/>
<path d="M166.751 261.965C135.951 261.965 105.141 261.965 74.3406 261.965C71.8406 261.965 69.8506 261.225 68.7506 258.805C68.4406 258.115 68.3906 257.405 68.3906 256.675C68.3906 253.595 68.5306 250.505 68.3506 247.435C68.1706 244.395 70.3706 242.335 73.3606 242.085C73.6906 242.055 74.0306 242.085 74.3706 242.085C135.871 242.085 197.371 242.085 258.861 242.065C260.431 242.065 261.881 242.325 263.161 243.195C264.451 244.075 265.061 245.345 265.051 246.915C265.031 250.165 265.051 253.415 265.021 256.665C264.991 259.975 263.131 261.865 259.831 261.945C258.261 261.985 256.691 261.945 255.131 261.945C225.671 261.945 196.211 261.945 166.751 261.945V261.965Z" fill="#85C4BC"/>
<path d="M166.75 207.755C197.16 207.755 227.58 207.755 257.99 207.755C258.66 207.755 259.33 207.745 260.01 207.765C263.09 207.865 265.01 209.795 265.04 212.865C265.07 215.885 264.89 218.925 265.09 221.935C265.32 225.275 262.74 227.575 259.48 227.635C258.98 227.635 258.47 227.635 257.97 227.635C196.98 227.635 135.98 227.635 74.9904 227.635C73.2304 227.635 71.5804 227.455 70.1004 226.285C68.9204 225.355 68.4204 224.225 68.4004 222.825C68.3704 219.355 68.3704 215.875 68.4004 212.405C68.4204 210.075 70.3204 208.035 72.6604 207.795C73.4404 207.715 74.2304 207.745 75.0104 207.745C105.59 207.745 136.17 207.745 166.75 207.745V207.755Z" fill="#85C4BC"/>
<path d="M166.88 89.8652C136.35 89.8652 105.83 89.8652 75.3005 89.8652C74.0005 89.8652 72.6905 89.8853 71.5505 89.1952C70.0505 88.2952 68.9705 87.1452 69.0205 85.1752C69.1005 81.8752 69.2104 78.5552 69.0004 75.2652C68.7804 71.9652 71.7104 70.0052 74.2504 69.9752C76.5504 69.9452 78.8404 69.9752 81.1404 69.9752C140.29 69.9752 199.43 69.9752 258.58 69.9652C260.06 69.9652 261.48 70.0852 262.79 70.8552C264.21 71.6852 265.03 72.8952 265.05 74.5352C265.09 78.0652 265.11 81.5952 265.03 85.1252C264.97 88.0452 262.87 89.8552 259.64 89.8652C250.96 89.8852 242.28 89.8852 233.6 89.8852C211.36 89.8852 189.13 89.8852 166.89 89.8852L166.88 89.8652Z" fill="#85C4BC"/>
<path d="M236.501 1.0852C244.121 1.0852 251.741 1.0852 259.351 1.0852C263.131 1.0852 265.041 2.9652 265.051 6.7252C265.051 9.6352 265.051 12.5552 265.051 15.4652C265.051 19.3052 263.171 21.1752 259.261 21.1852C249.741 21.1952 240.211 21.1852 230.691 21.1852C224.981 21.1852 219.261 21.1852 213.551 21.1852C212.361 21.1852 211.211 21.0452 210.131 20.5152C208.411 19.6752 207.511 18.3552 207.541 16.3852C207.591 13.2452 207.561 10.1152 207.551 6.9752C207.551 2.9052 209.381 1.0752 213.461 1.0752C221.131 1.0752 228.811 1.0752 236.481 1.0752L236.501 1.0852Z" fill="#85C4BC"/>
<path d="M236.271 158.755C228.601 158.755 220.931 158.755 213.261 158.755C209.131 158.755 207.541 157.165 207.551 153.105C207.551 150.025 207.551 146.945 207.551 143.865C207.551 140.915 209.441 138.925 212.411 138.875C215.211 138.825 218.011 138.875 220.811 138.875C233.631 138.875 246.451 138.875 259.261 138.875C263.291 138.875 265.041 140.625 265.051 144.685C265.051 147.595 265.071 150.505 265.051 153.415C265.041 156.805 263.161 158.735 259.781 158.745C251.941 158.775 244.111 158.745 236.271 158.755Z" fill="#85C4BC"/>
<path d="M236.211 55.5352C228.591 55.5352 220.971 55.5352 213.351 55.5352C211.741 55.5352 210.241 55.2852 208.991 54.1452C208.031 53.2652 207.511 52.2652 207.531 50.9052C207.581 47.3752 207.531 43.8452 207.531 40.3152C207.531 37.8952 209.241 35.9752 211.681 35.6852C212.181 35.6252 212.691 35.6252 213.191 35.6252C228.601 35.6252 244.011 35.6252 259.411 35.6252C260.541 35.6252 261.651 35.6552 262.651 36.2952C264.161 37.2652 265.081 38.5352 265.051 40.4352C265.001 43.5752 265.051 46.7152 265.041 49.8452C265.041 53.6652 263.141 55.5152 259.231 55.5152C251.551 55.5152 243.881 55.5152 236.201 55.5152L236.211 55.5352Z" fill="#85C4BC"/>
<path d="M236.201 193.085C228.481 193.085 220.751 192.995 213.031 193.125C209.721 193.175 207.201 191.075 207.511 187.575C207.751 184.795 207.561 181.985 207.561 179.185C207.561 174.935 209.361 173.185 213.701 173.185C218.791 173.185 223.891 173.185 228.981 173.185C239.051 173.185 249.131 173.185 259.201 173.185C263.171 173.185 265.051 175.035 265.061 178.995C265.061 182.015 265.061 185.035 265.061 188.065C265.051 191.185 263.201 193.065 260.051 193.065C252.101 193.085 244.161 193.065 236.211 193.065L236.201 193.085Z" fill="#85C4BC"/>
<path d="M124.171 28.7252C124.171 36.0052 124.171 43.2752 124.171 50.5552C124.171 54.5952 122.631 56.1552 118.641 56.1652C115.511 56.1652 112.371 56.1752 109.241 56.1652C105.871 56.1552 104.121 54.4052 104.111 50.9752C104.091 42.8652 104.111 34.7452 104.111 26.6352C104.111 20.0852 104.111 13.5352 104.101 6.99522C104.101 5.97522 104.231 4.99522 104.601 4.04522C105.341 2.15522 106.401 1.38522 108.411 1.37522C111.991 1.35522 115.571 1.37522 119.161 1.37522C122.481 1.37522 124.161 3.03522 124.181 6.41522C124.211 11.6752 124.181 16.9352 124.181 22.1952C124.181 24.3752 124.181 26.5652 124.181 28.7452L124.171 28.7252Z" fill="#60A29B"/>
<path d="M193.091 28.8352C193.091 36.1152 193.091 43.4052 193.091 50.6852C193.091 54.5852 191.481 56.1752 187.581 56.1652C184.391 56.1652 181.191 56.1652 178.001 56.1652C174.901 56.1652 173.121 54.4652 173.021 51.3352C172.961 49.6052 173.001 47.8652 173.001 46.1252C173.001 33.2352 173.001 20.3552 172.991 7.46515C172.991 6.50515 173.031 5.56515 173.281 4.63515C173.851 2.45515 175.261 1.36515 177.521 1.35515C180.991 1.34515 184.471 1.35515 187.941 1.35515C191.381 1.35515 193.071 3.00515 193.091 6.48515C193.121 13.9352 193.091 21.3852 193.091 28.8352Z" fill="#60A29B"/>
<path d="M124.171 166.065C124.171 173.295 124.171 180.515 124.171 187.745C124.171 191.735 122.591 193.305 118.581 193.315C115.441 193.315 112.311 193.315 109.171 193.315C105.961 193.305 104.111 191.455 104.101 188.205C104.081 181.205 104.101 174.205 104.101 167.195C104.101 159.635 104.101 152.075 104.101 144.505C104.101 143.485 104.191 142.495 104.581 141.545C105.361 139.595 106.451 138.845 108.561 138.845C112.031 138.845 115.511 138.845 118.981 138.845C122.551 138.845 124.171 140.455 124.181 144.045C124.201 151.385 124.181 158.725 124.181 166.055L124.171 166.065Z" fill="#60A29B"/>
<path d="M193.091 166.095C193.091 173.325 193.091 180.545 193.091 187.775C193.091 191.635 191.421 193.315 187.601 193.315C184.521 193.315 181.431 193.165 178.361 193.355C174.501 193.595 173.121 190.945 173.001 188.145C172.971 187.305 172.991 186.465 172.991 185.625C172.991 171.905 172.991 158.175 172.991 144.455C172.991 143.435 173.081 142.435 173.441 141.485C174.081 139.775 175.431 138.865 177.311 138.855C180.951 138.845 184.591 138.855 188.231 138.855C191.301 138.855 193.061 140.605 193.071 143.755C193.091 151.205 193.071 158.655 193.071 166.105L193.091 166.095Z" fill="#60A29B"/>
<path d="M158.561 28.7152C158.561 35.9452 158.561 43.1652 158.561 50.3952C158.561 54.7552 157.171 56.1552 152.891 56.1652C149.871 56.1652 146.841 56.1652 143.821 56.1652C140.341 56.1852 138.671 54.5752 138.631 51.0752C138.591 47.3752 138.621 43.6852 138.611 39.9852C138.611 29.0652 138.611 18.1452 138.611 7.21522C138.611 6.15522 138.581 5.09522 138.981 4.06522C139.631 2.37522 141.001 1.37522 142.791 1.36522C146.491 1.35522 150.181 1.34522 153.881 1.35522C156.821 1.35522 158.431 2.88522 158.531 5.86522C158.601 7.82522 158.571 9.78522 158.571 11.7452C158.571 17.4052 158.571 23.0552 158.571 28.7152H158.561Z" fill="#60A29B"/>
<path d="M89.6506 28.6151C89.6506 35.9551 89.6506 43.2851 89.6506 50.6251C89.6506 54.6851 88.1306 56.1751 84.0806 56.1651C80.8906 56.1651 77.7006 56.1651 74.5106 56.1651C71.6006 56.1651 69.8106 54.4551 69.7406 51.5151C69.6806 49.1051 69.7206 46.6951 69.7206 44.2951C69.7206 31.7551 69.7206 19.2051 69.7206 6.66514C69.7206 5.22514 69.9406 3.89514 70.9006 2.74514C71.6206 1.87514 72.4806 1.36514 73.6406 1.36514C77.7306 1.36514 81.8206 1.33514 85.9006 1.36514C87.8406 1.38514 89.4306 3.12514 89.6006 5.43514C89.7206 6.99514 89.6706 8.56514 89.6706 10.1351C89.6706 16.2951 89.6706 22.4551 89.6706 28.6151H89.6506Z" fill="#60A29B"/>
<path d="M69.7206 165.945C69.7206 158.615 69.7206 151.275 69.7206 143.945C69.7206 142.505 70.0006 141.165 71.0106 140.075C71.7706 139.255 72.6706 138.835 73.8306 138.845C77.6406 138.875 81.4406 138.835 85.2506 138.855C87.7306 138.865 89.4206 140.485 89.6306 142.965C89.6806 143.575 89.6606 144.195 89.6606 144.815C89.6606 159.095 89.6606 173.365 89.6606 187.645C89.6606 191.815 88.1806 193.315 84.0406 193.325C80.8506 193.325 77.6606 193.335 74.4706 193.325C71.5006 193.305 69.7406 191.535 69.7306 188.465C69.7006 180.965 69.7306 173.465 69.7306 165.955L69.7206 165.945Z" fill="#60A29B"/>
<path d="M158.561 166.105C158.561 173.325 158.561 180.545 158.561 187.765C158.561 191.825 157.061 193.315 152.991 193.315C149.911 193.315 146.831 193.315 143.751 193.315C140.291 193.305 138.631 191.685 138.621 188.165C138.591 177.475 138.611 166.785 138.611 156.085C138.611 152.055 138.601 148.025 138.611 143.995C138.631 140.435 140.301 138.835 143.871 138.845C147.121 138.855 150.361 138.845 153.611 138.845C156.891 138.845 158.531 140.425 158.551 143.765C158.591 150.255 158.561 156.755 158.561 163.245C158.561 164.195 158.561 165.145 158.561 166.095V166.105Z" fill="#60A29B"/>
<path d="M370.895 117.98C370.895 119.43 369.715 120.61 368.265 120.61H348.555C347.065 120.64 345.825 119.47 345.765 117.98V4.46039C345.795 2.98039 347.015 1.80039 348.505 1.83039C348.525 1.83039 348.545 1.83039 348.565 1.83039H427.365C428.805 1.86039 429.965 3.02039 429.995 4.46039V21.5504C429.965 22.9904 428.805 24.1504 427.365 24.1804H370.905V49.8104H419.695C421.135 49.8404 422.295 51.0004 422.325 52.4404V69.3104C422.385 70.7904 421.235 72.0404 419.755 72.1004C419.735 72.1004 419.715 72.1004 419.695 72.1004H370.905V117.99L370.895 117.98Z" fill="#6D635B"/>
<path d="M479.155 22.9704V58.0204H503.575C508.865 58.4904 514.175 57.4704 518.905 55.0604C523.565 51.8104 526.215 46.3904 525.915 40.7104C526.285 35.1304 523.785 29.7404 519.285 26.4204C515.155 24.0204 510.425 22.8204 505.645 22.9704H479.145H479.155ZM527.615 75.7605L553.295 116.07C554.495 118.15 554.665 120.62 551.705 120.62H529.805C527.725 120.99 525.655 119.91 524.765 117.99L501.385 79.6605H479.155V117.99C479.185 119.41 478.055 120.59 476.635 120.62C476.595 120.62 476.565 120.62 476.525 120.62H456.865C455.375 120.65 454.135 119.48 454.075 117.99V4.46045C454.105 2.98045 455.325 1.80045 456.815 1.83045C456.835 1.83045 456.855 1.83045 456.875 1.83045H507.745C518.355 1.21045 528.885 4.03045 537.755 9.88045C546.945 17.2704 552.065 28.6004 551.555 40.3804C551.805 51.6004 546.925 62.3305 538.305 69.5105C535.025 72.2205 531.325 74.3805 527.355 75.9205L527.625 75.7605H527.615Z" fill="#6D635B"/>
<path d="M663.815 1.83037C665.295 1.77037 666.545 2.92037 666.605 4.40037C666.605 4.42037 666.605 4.44037 666.605 4.46037V21.5504C666.545 23.0404 665.305 24.2104 663.815 24.1804H602.095V49.8104H654.775C656.215 49.8404 657.375 51.0004 657.405 52.4404V69.3104C657.435 70.8004 656.265 72.0404 654.775 72.1004H602.095V98.4404H663.815C665.265 98.3504 666.515 99.4504 666.605 100.9C666.605 100.96 666.605 101.01 666.605 101.07V117.99C666.545 119.48 665.305 120.65 663.815 120.62H579.805C578.315 120.65 577.075 119.48 577.015 117.99V4.46037C577.045 2.98037 578.265 1.80037 579.755 1.83037C579.775 1.83037 579.795 1.83037 579.815 1.83037H663.825H663.815Z" fill="#6D635B"/>
<path d="M688.465 111.19C687.255 110.63 686.735 109.19 687.295 107.99C687.315 107.94 687.345 107.9 687.365 107.85L695.685 90.9304C696.065 89.8104 697.275 89.2104 698.395 89.5904C698.605 89.6604 698.795 89.7604 698.975 89.8904C708.295 96.6304 719.405 100.45 730.905 100.84C735.705 101.13 740.475 99.9104 744.545 97.3404C747.785 94.9904 749.665 91.2104 749.585 87.2104C749.585 80.0904 743.285 76.2604 734.745 73.3004C725.325 69.8004 713.495 67.5004 703.365 61.2504C693.565 55.7304 687.715 45.1604 688.255 33.9204C688.065 24.0904 692.685 14.7904 700.635 9.00041C710.365 2.61041 721.865 -0.519587 733.495 0.0704126C746.735 -0.229587 759.825 2.90041 771.505 9.16041C772.655 9.61041 773.225 10.9204 772.775 12.0704C772.715 12.2204 772.645 12.3604 772.555 12.5004L764.555 29.3704C764.075 30.4804 762.785 30.9904 761.675 30.5204C761.515 30.4504 761.355 30.3604 761.215 30.2504C752.365 25.1004 742.375 22.2404 732.135 21.9304C727.635 21.7204 723.165 22.7404 719.215 24.8904C716.495 26.6404 714.845 29.6504 714.835 32.8904C714.835 39.3504 721.135 42.6404 730.005 45.6504C740.465 48.9404 753.225 51.1304 763.135 58.1904C772.045 64.0704 777.215 74.1904 776.775 84.8604C777.145 95.5804 772.255 105.8 763.685 112.24C754.155 119.14 742.585 122.65 730.825 122.21C715.925 122.48 701.235 118.69 688.325 111.26L688.485 111.21L688.465 111.19Z" fill="#6D635B"/>
<path d="M904.825 1.83042C906.265 1.86042 907.425 3.02042 907.455 4.46042V117.98C907.425 119.42 906.265 120.58 904.825 120.61H884.945C883.525 120.55 882.395 119.4 882.375 117.98V71.9204H828.325V117.98C828.325 119.43 827.145 120.61 825.695 120.61H805.985C804.495 120.64 803.255 119.47 803.195 117.98V4.46042C803.225 2.98042 804.445 1.80042 805.935 1.83042C805.955 1.83042 805.975 1.83042 805.995 1.83042H825.705C827.125 1.80042 828.305 2.93042 828.335 4.35042C828.335 4.39042 828.335 4.42042 828.335 4.46042V49.8004H882.385V4.46042C882.385 3.03042 883.525 1.86042 884.955 1.83042H904.835H904.825Z" fill="#6D635B"/>
<path d="M967.475 117.98C967.505 119.4 966.375 120.58 964.955 120.61C964.915 120.61 964.885 120.61 964.845 120.61H945.135C943.645 120.64 942.405 119.47 942.345 117.98V4.46039C942.375 2.98039 943.595 1.80039 945.085 1.83039C945.105 1.83039 945.125 1.83039 945.145 1.83039H1024.27C1025.7 1.86039 1026.84 3.03039 1026.84 4.46039V21.5504C1026.81 22.9704 1025.68 24.1204 1024.27 24.1804H967.485V49.8104H1016.27C1017.71 49.8404 1018.87 51.0004 1018.9 52.4404V69.3104C1018.96 70.7904 1017.81 72.0404 1016.33 72.1004C1016.31 72.1004 1016.29 72.1004 1016.27 72.1004H967.485V117.99L967.475 117.98Z" fill="#6D635B"/>
<path d="M1081.7 29.9304C1076.57 35.6504 1073.93 43.1804 1074.36 50.8504V64.1004H1121.95V50.8504C1122.35 43.2204 1119.8 35.7304 1114.83 29.9304C1110.28 25.7204 1104.28 23.4604 1098.08 23.6304C1091.98 23.4604 1086.06 25.7304 1081.64 29.9304H1081.7H1081.7ZM1147.09 117.99C1147.03 119.42 1145.89 120.56 1144.46 120.62H1124.58C1123.15 120.56 1122.01 119.42 1121.95 117.99V86.4504H1074.36V117.99C1074.33 119.43 1073.17 120.59 1071.73 120.62H1051.63C1050.2 120.56 1049.06 119.42 1049 117.99V49.8004C1048.74 34.8804 1055.14 20.6304 1066.47 10.9204C1085.03 -3.30958 1110.83 -3.30958 1129.39 10.9204C1140.81 20.5604 1147.23 34.8604 1146.86 49.8004V117.98H1147.08L1147.09 117.99Z" fill="#6D635B"/>
<path d="M1204.1 22.9704V58.0204H1228.53C1233.82 58.4904 1239.12 57.4704 1243.85 55.0604C1248.62 51.8204 1251.36 46.3104 1251.03 40.5504C1251.4 34.9705 1248.9 29.5804 1244.4 26.2604C1240.2 23.8804 1235.41 22.7404 1230.59 22.9704H1204.09H1204.1ZM1252.57 75.7605L1278.42 116.07C1279.62 118.15 1279.79 120.62 1276.83 120.62H1254.93C1252.85 120.99 1250.78 119.91 1249.89 117.99L1226.51 79.6605H1203.99V117.99C1204.02 119.41 1202.89 120.59 1201.47 120.62C1201.43 120.62 1201.4 120.62 1201.36 120.62H1181.7C1180.21 120.65 1178.98 119.48 1178.92 117.99V4.46045C1178.95 2.98045 1180.17 1.80045 1181.66 1.83045C1181.68 1.83045 1181.69 1.83045 1181.71 1.83045H1232.58C1243.19 1.21045 1253.72 4.03045 1262.59 9.88045C1271.78 17.2704 1276.91 28.6004 1276.4 40.3804C1276.65 51.6004 1271.77 62.3305 1263.15 69.5105C1259.95 72.1905 1256.33 74.3505 1252.46 75.9205L1252.58 75.7605H1252.57Z" fill="#6D635B"/>
<path d="M1426.6 117.98C1426.54 119.45 1425.33 120.61 1423.86 120.61H1405.02C1403.53 120.64 1402.29 119.47 1402.23 117.98V45.4205L1376.93 89.5605C1376.34 91.3305 1374.63 92.4705 1372.77 92.3505H1358.31C1356.46 92.4205 1354.79 91.2905 1354.15 89.5605L1328.14 45.4205V117.98C1328.08 119.47 1326.84 120.64 1325.35 120.61H1306.51C1305.03 120.61 1303.8 119.46 1303.72 117.98V4.46046C1303.78 2.97046 1305.02 1.80046 1306.51 1.83046H1326.39C1328.46 1.60046 1330.45 2.72046 1331.32 4.62046L1365.11 63.3805L1399.12 4.62046C1399.86 2.72046 1401.8 1.56046 1403.83 1.83046H1424.04C1425.52 1.80046 1426.75 2.98046 1426.78 4.46046V117.98H1426.62H1426.6Z" fill="#6D635B"/>
<path d="M462.425 187.25H451.225V246.33H461.025V262.29H424.485V246.33H432.465V211.61H431.905L407.965 254.87H400.125L374.365 209.93H373.805V246.33H382.485V262.29H346.505V246.33H356.305V187.25H345.105V171.29H371.985L404.325 227.71H404.885L435.265 171.29H462.425V187.25Z" fill="#5DA29A"/>
<path d="M478.046 203.63C483.553 201.39 488.126 199.897 491.766 199.15C495.499 198.31 499.933 197.89 505.066 197.89C511.879 197.89 517.759 199.664 522.706 203.21C527.653 206.757 530.126 212.124 530.126 219.31V246.75C530.126 250.017 531.573 251.65 534.466 251.65C535.306 251.65 536.193 251.51 537.126 251.23L537.266 260.75C533.626 262.71 529.846 263.69 525.926 263.69C517.619 263.69 512.999 259.537 512.066 251.23V251.09C510.293 254.264 507.726 257.157 504.366 259.77C501.099 262.384 496.899 263.69 491.766 263.69C487.193 263.69 482.806 262.337 478.606 259.63C474.406 256.924 472.306 252.257 472.306 245.63C472.306 237.884 475.386 232.75 481.546 230.23C487.799 227.71 494.519 226.45 501.706 226.45C505.719 226.45 509.173 226.637 512.066 227.01V224.91C512.066 221.644 511.599 218.47 510.666 215.39C509.826 212.31 506.839 210.77 501.706 210.77C499.839 210.77 498.113 210.91 496.526 211.19C495.033 211.377 493.539 211.844 492.046 212.59L489.666 221.55L475.246 220.01L478.046 203.63ZM512.066 236.53V235.69C510.573 235.504 509.033 235.317 507.446 235.13C505.953 234.944 504.459 234.85 502.966 234.85C499.793 234.85 496.993 235.457 494.566 236.67C492.139 237.79 490.926 240.077 490.926 243.53C490.926 245.584 491.486 247.31 492.606 248.71C493.726 250.11 495.639 250.81 498.346 250.81C501.519 250.81 504.459 249.69 507.166 247.45C509.966 245.117 511.599 241.477 512.066 236.53Z" fill="#5DA29A"/>
<path d="M586.106 198.31C587.88 198.31 589.84 198.59 591.986 199.15C594.226 199.617 596.42 200.504 598.566 201.81L601.366 223.93L587.646 225.47L585.266 214.69C583.4 213.57 581.766 213.01 580.366 213.01C578.313 213.01 576.493 213.804 574.906 215.39C573.413 216.977 572.666 219.31 572.666 222.39V248.71H583.866V262.29H546.206V248.71H554.606V212.87H545.506V199.15H571.266V211.19C572.293 207.55 573.926 204.517 576.166 202.09C578.5 199.57 581.813 198.31 586.106 198.31Z" fill="#5DA29A"/>
<path d="M681.246 262.29H648.906V248.71H654.786L643.866 236.25H634.486V248.71H640.226V262.29H608.026V248.71H616.426V179.69H607.326V165.97H634.486V223.51H644.986L654.226 212.87H646.666V199.15H678.306V212.87H671.446L657.866 228.27L675.786 248.71H681.246V262.29Z" fill="#5DA29A"/>
<path d="M750.105 242.41C749.639 248.01 746.885 252.957 741.845 257.25C736.805 261.544 729.759 263.69 720.705 263.69C711.279 263.69 703.485 261.03 697.325 255.71C691.259 250.39 688.225 242.457 688.225 231.91C688.225 222.204 690.979 214.13 696.485 207.69C702.085 201.157 709.879 197.89 719.865 197.89C728.639 197.89 735.732 200.41 741.145 205.45C746.652 210.49 749.452 217.117 749.545 225.33C749.545 228.41 749.219 231.444 748.565 234.43H707.125C708.152 244.417 713.099 249.41 721.965 249.41C726.819 249.41 730.085 248.244 731.765 245.91C733.539 243.577 734.612 241.477 734.985 239.61L750.105 242.41ZM730.925 223.93C731.299 220.757 730.599 217.77 728.825 214.97C727.145 212.17 724.159 210.77 719.865 210.77C716.132 210.77 713.239 211.984 711.185 214.41C709.132 216.837 707.825 220.01 707.265 223.93H730.925Z" fill="#5DA29A"/>
<path d="M812.601 242.69C811.668 249.97 809.148 255.29 805.041 258.65C800.934 262.01 795.614 263.69 789.081 263.69C782.081 263.69 776.388 261.964 772.001 258.51C767.708 254.964 765.561 249.924 765.561 243.39V212.03H756.601V199.15H765.561V179.97H783.621V199.15H806.301V212.03H783.621V240.31C783.621 245.817 786.141 248.57 791.181 248.57C792.301 248.57 793.794 248.104 795.661 247.17C797.621 246.144 798.881 243.297 799.441 238.63L812.601 242.69Z" fill="#5DA29A"/>
<path d="M931.316 202.09L915.356 203.49L912.556 187.25H898.136V246.33H912.976V262.29H865.376V246.33H879.376V187.25H864.956L862.156 203.49L846.196 202.09L848.996 171.29H928.516L931.316 202.09Z" fill="#5DA29A"/>
<path d="M981.207 198.31C982.98 198.31 984.94 198.59 987.087 199.15C989.327 199.617 991.52 200.504 993.667 201.81L996.467 223.93L982.747 225.47L980.367 214.69C978.5 213.57 976.867 213.01 975.467 213.01C973.414 213.01 971.594 213.804 970.007 215.39C968.514 216.977 967.767 219.31 967.767 222.39V248.71H978.967V262.29H941.307V248.71H949.707V212.87H940.607V199.15H966.367V211.19C967.394 207.55 969.027 204.517 971.267 202.09C973.6 199.57 976.914 198.31 981.207 198.31Z" fill="#5DA29A"/>
<path d="M1011.36 203.63C1016.87 201.39 1021.44 199.897 1025.08 199.15C1028.82 198.31 1033.25 197.89 1038.38 197.89C1045.2 197.89 1051.08 199.664 1056.02 203.21C1060.97 206.757 1063.44 212.124 1063.44 219.31V246.75C1063.44 250.017 1064.89 251.65 1067.78 251.65C1068.62 251.65 1069.51 251.51 1070.44 251.23L1070.58 260.75C1066.94 262.71 1063.16 263.69 1059.24 263.69C1050.94 263.69 1046.32 259.537 1045.38 251.23V251.09C1043.61 254.264 1041.04 257.157 1037.68 259.77C1034.42 262.384 1030.22 263.69 1025.08 263.69C1020.51 263.69 1016.12 262.337 1011.92 259.63C1007.72 256.924 1005.62 252.257 1005.62 245.63C1005.62 237.884 1008.7 232.75 1014.86 230.23C1021.12 227.71 1027.84 226.45 1035.02 226.45C1039.04 226.45 1042.49 226.637 1045.38 227.01V224.91C1045.38 221.644 1044.92 218.47 1043.98 215.39C1043.14 212.31 1040.16 210.77 1035.02 210.77C1033.16 210.77 1031.43 210.91 1029.84 211.19C1028.35 211.377 1026.86 211.844 1025.36 212.59L1022.98 221.55L1008.56 220.01L1011.36 203.63ZM1045.38 236.53V235.69C1043.89 235.504 1042.35 235.317 1040.76 235.13C1039.27 234.944 1037.78 234.85 1036.28 234.85C1033.11 234.85 1030.31 235.457 1027.88 236.67C1025.46 237.79 1024.24 240.077 1024.24 243.53C1024.24 245.584 1024.8 247.31 1025.92 248.71C1027.04 250.11 1028.96 250.81 1031.66 250.81C1034.84 250.81 1037.78 249.69 1040.48 247.45C1043.28 245.117 1044.92 241.477 1045.38 236.53Z" fill="#5DA29A"/>
<path d="M1139.16 238.77C1138.51 244.557 1135.99 250.157 1131.6 255.57C1127.31 260.984 1120.08 263.69 1109.9 263.69C1100.76 263.69 1093.2 261.03 1087.22 255.71C1081.34 250.39 1078.4 242.41 1078.4 231.77C1078.4 220.57 1081.62 212.124 1088.06 206.43C1094.5 200.737 1102.3 197.89 1111.44 197.89C1114.9 197.89 1118.58 198.357 1122.5 199.29C1126.52 200.13 1130.44 201.577 1134.26 203.63L1137.06 222.81L1122.64 224.35L1120.54 213.99C1116.9 212.777 1113.73 212.17 1111.02 212.17C1107.2 212.17 1103.93 213.664 1101.22 216.65C1098.52 219.544 1097.16 224.304 1097.16 230.93C1097.16 243.25 1101.97 249.41 1111.58 249.41C1118.68 249.41 1122.83 244.93 1124.04 235.97L1139.16 238.77Z" fill="#5DA29A"/>
<path d="M1219.62 262.29H1187.28V248.71H1193.16L1182.24 236.25H1172.86V248.71H1178.6V262.29H1146.4V248.71H1154.8V179.69H1145.7V165.97H1172.86V223.51H1183.36L1192.6 212.87H1185.04V199.15H1216.68V212.87H1209.82L1196.24 228.27L1214.16 248.71H1219.62V262.29Z" fill="#5DA29A"/>
<path d="M1288.48 242.41C1288.02 248.01 1285.26 252.957 1280.22 257.25C1275.18 261.544 1268.14 263.69 1259.08 263.69C1249.66 263.69 1241.86 261.03 1235.7 255.71C1229.64 250.39 1226.6 242.457 1226.6 231.91C1226.6 222.204 1229.36 214.13 1234.86 207.69C1240.46 201.157 1248.26 197.89 1258.24 197.89C1267.02 197.89 1274.11 200.41 1279.52 205.45C1285.03 210.49 1287.83 217.117 1287.92 225.33C1287.92 228.41 1287.6 231.444 1286.94 234.43H1245.5C1246.53 244.417 1251.48 249.41 1260.34 249.41C1265.2 249.41 1268.46 248.244 1270.14 245.91C1271.92 243.577 1272.99 241.477 1273.36 239.61L1288.48 242.41ZM1269.3 223.93C1269.68 220.757 1268.98 217.77 1267.2 214.97C1265.52 212.17 1262.54 210.77 1258.24 210.77C1254.51 210.77 1251.62 211.984 1249.56 214.41C1247.51 216.837 1246.2 220.01 1245.64 223.93H1269.3Z" fill="#5DA29A"/>
<path d="M1338.1 198.31C1339.87 198.31 1341.83 198.59 1343.98 199.15C1346.22 199.617 1348.41 200.504 1350.56 201.81L1353.36 223.93L1339.64 225.47L1337.26 214.69C1335.39 213.57 1333.76 213.01 1332.36 213.01C1330.3 213.01 1328.48 213.804 1326.9 215.39C1325.4 216.977 1324.66 219.31 1324.66 222.39V248.71H1335.86V262.29H1298.2V248.71H1306.6V212.87H1297.5V199.15H1323.26V211.19C1324.28 207.55 1325.92 204.517 1328.16 202.09C1330.49 199.57 1333.8 198.31 1338.1 198.31Z" fill="#5DA29A"/>
</g>
<defs>
<clipPath id="clip0_794_81229">
<rect width="1426" height="263.69" fill="white" transform="translate(0.788086)"/>
</clipPath>
</defs>
</svg>
