<svg width="25" height="25" viewBox="0 0 25 25" fill="none" xmlns="http://www.w3.org/2000/svg">
<path d="M8.95459 9.39154C8.95459 8.13069 9.32848 6.89815 10.029 5.84978C10.7295 4.80142 11.7251 3.98432 12.89 3.50181C14.0549 3.0193 15.3367 2.89306 16.5733 3.13904C17.8099 3.38502 18.9458 3.99218 19.8374 4.88374C20.729 5.7753 21.3361 6.91121 21.5821 8.14784C21.8281 9.38447 21.7018 10.6663 21.2193 11.8312C20.7368 12.996 19.9197 13.9917 18.8714 14.6922C17.823 15.3927 16.5904 15.7665 15.3296 15.7665H7.82959C6.73557 15.7665 5.68636 15.3319 4.91277 14.5584C4.13919 13.7848 3.70459 12.7356 3.70459 11.6415C3.70459 10.5475 4.13919 9.49832 4.91277 8.72473C5.68636 7.95114 6.73557 7.51654 7.82959 7.51654C8.28605 7.5142 8.73953 7.5903 9.17022 7.74154" stroke="black" stroke-width="1.5" stroke-linecap="round" stroke-linejoin="round"/>
<path d="M8.70459 19.1415C8.70459 19.6248 8.31284 20.0165 7.82959 20.0165C7.34634 20.0165 6.95459 19.6248 6.95459 19.1415C6.95459 18.6583 7.34634 18.2665 7.82959 18.2665C8.31284 18.2665 8.70459 18.6583 8.70459 19.1415Z" fill="black" stroke="black" stroke-width="0.125"/>
<path d="M12.4546 20.6415C12.4546 21.1248 12.0628 21.5165 11.5796 21.5165C11.0963 21.5165 10.7046 21.1248 10.7046 20.6415C10.7046 20.1583 11.0963 19.7665 11.5796 19.7665C12.0628 19.7665 12.4546 20.1583 12.4546 20.6415Z" fill="black" stroke="black" stroke-width="0.125"/>
<path d="M16.0796 20.079C16.5974 20.079 17.0171 19.6593 17.0171 19.1415C17.0171 18.6238 16.5974 18.204 16.0796 18.204C15.5618 18.204 15.1421 18.6238 15.1421 19.1415C15.1421 19.6593 15.5618 20.079 16.0796 20.079Z" fill="black"/>
<path d="M7.07959 23.829C7.59736 23.829 8.01709 23.4093 8.01709 22.8915C8.01709 22.3738 7.59736 21.954 7.07959 21.954C6.56182 21.954 6.14209 22.3738 6.14209 22.8915C6.14209 23.4093 6.56182 23.829 7.07959 23.829Z" fill="black"/>
<path d="M15.3296 23.829C15.8474 23.829 16.2671 23.4093 16.2671 22.8915C16.2671 22.3738 15.8474 21.954 15.3296 21.954C14.8118 21.954 14.3921 22.3738 14.3921 22.8915C14.3921 23.4093 14.8118 23.829 15.3296 23.829Z" fill="black"/>
</svg>
