<svg fill="none" xmlns="http://www.w3.org/2000/svg" viewBox="0 0 25 25"><path d="M8.955 9.392a6.375 6.375 0 1 1 6.375 6.375h-7.5a4.125 4.125 0 1 1 1.34-8.025" stroke="#000" stroke-width="1.5" stroke-linecap="round" stroke-linejoin="round"/><path d="M8.705 19.142a.875.875 0 1 1-1.75 0 .875.875 0 0 1 1.75 0ZM12.455 20.642a.875.875 0 1 1-1.75 0 .875.875 0 0 1 1.75 0Z" fill="#000" stroke="#000" stroke-width=".125"/><path d="M16.08 20.079a.937.937 0 1 0 0-1.875.937.937 0 0 0 0 1.875ZM7.08 23.829a.937.937 0 1 0 0-1.875.937.937 0 0 0 0 1.875ZM15.33 23.829a.937.937 0 1 0 0-1.875.937.937 0 0 0 0 1.875Z" fill="#000"/></svg>