<svg width="25" height="25" viewBox="0 0 25 25" fill="none" xmlns="http://www.w3.org/2000/svg">
<path d="M11.9751 20.2665C13.0106 20.2665 13.8501 19.4271 13.8501 18.3915C13.8501 17.356 13.0106 16.5165 11.9751 16.5165C10.9396 16.5165 10.1001 17.356 10.1001 18.3915C10.1001 19.4271 10.9396 20.2665 11.9751 20.2665Z" stroke="#6D635B" stroke-width="1.5" stroke-linecap="round" stroke-linejoin="round"/>
<path d="M11.9751 16.5165V5.26654" stroke="#6D635B" stroke-width="1.5" stroke-linecap="round" stroke-linejoin="round"/>
<path d="M23.253 8.26653C23.0789 8.44086 22.8721 8.57916 22.6445 8.67351C22.4169 8.76787 22.1729 8.81644 21.9265 8.81644C21.6801 8.81644 21.4361 8.76787 21.2085 8.67351C20.9808 8.57916 20.774 8.44086 20.5999 8.26653C20.4258 8.0922 20.219 7.9539 19.9914 7.85954C19.7637 7.76518 19.5197 7.71661 19.2733 7.71661C19.0269 7.71661 18.7829 7.76518 18.5553 7.85954C18.3277 7.9539 18.1209 8.0922 17.9468 8.26653" stroke="#6D635B" stroke-width="1.5" stroke-linecap="round" stroke-linejoin="round"/>
<path d="M23.253 12.0165C23.0789 12.1909 22.8721 12.3292 22.6445 12.4235C22.4169 12.5179 22.1729 12.5664 21.9265 12.5664C21.6801 12.5664 21.4361 12.5179 21.2085 12.4235C20.9808 12.3292 20.774 12.1909 20.5999 12.0165C20.4258 11.8422 20.219 11.7039 19.9914 11.6095C19.7637 11.5152 19.5197 11.4666 19.2733 11.4666C19.0269 11.4666 18.7829 11.5152 18.5553 11.6095C18.3277 11.7039 18.1209 11.8422 17.9468 12.0165" stroke="#6D635B" stroke-width="1.5" stroke-linecap="round" stroke-linejoin="round"/>
<path d="M8.9751 14.5478V5.26654C8.9751 4.47089 9.29117 3.70783 9.85378 3.14522C10.4164 2.58261 11.1794 2.26654 11.9751 2.26654C12.7707 2.26654 13.5338 2.58261 14.0964 3.14522C14.659 3.70783 14.9751 4.47089 14.9751 5.26654V14.5478C15.7752 15.1725 16.3604 16.0314 16.649 17.0046C16.9375 17.9778 16.9151 19.0169 16.5848 19.9767C16.2545 20.9366 15.6327 21.7694 14.8064 22.359C13.98 22.9485 12.9902 23.2654 11.9751 23.2654C10.96 23.2654 9.97019 22.9485 9.14382 22.359C8.31745 21.7694 7.69574 20.9366 7.36542 19.9767C7.0351 19.0169 7.01265 17.9778 7.30122 17.0046C7.58978 16.0314 8.17496 15.1725 8.9751 14.5478V14.5478Z" stroke="#6D635B" stroke-width="1.5" stroke-linecap="round" stroke-linejoin="round"/>
</svg>
