<svg width="25" height="25" viewBox="0 0 25 25" fill="none" xmlns="http://www.w3.org/2000/svg">
<path d="M12.7046 22.6436L15.1702 18.8936" stroke="black" stroke-width="1.5" stroke-linecap="round" stroke-linejoin="round"/>
<path d="M9.95752 19.6436L12.92 15.1436" stroke="black" stroke-width="1.5" stroke-linecap="round" stroke-linejoin="round"/>
<path d="M8.95459 8.76856C8.95459 7.5077 9.32848 6.27516 10.029 5.2268C10.7295 4.17843 11.7251 3.36133 12.89 2.87883C14.0549 2.39632 15.3367 2.27007 16.5733 2.51605C17.8099 2.76203 18.9458 3.36919 19.8374 4.26075C20.729 5.15231 21.3361 6.28823 21.5821 7.52486C21.8281 8.76149 21.7018 10.0433 21.2193 11.2082C20.7368 12.373 19.9197 13.3687 18.8714 14.0692C17.823 14.7697 16.5904 15.1436 15.3296 15.1436H7.82959C6.73557 15.1436 5.68636 14.709 4.91277 13.9354C4.13919 13.1618 3.70459 12.1126 3.70459 11.0186C3.70459 9.92454 4.13919 8.87533 4.91277 8.10174C5.68636 7.32815 6.73557 6.89356 7.82959 6.89356C8.28605 6.89121 8.73953 6.96732 9.17022 7.11856" stroke="black" stroke-width="1.5" stroke-linecap="round" stroke-linejoin="round"/>
</svg>
